<svg height="512" viewBox="0 0 64 64" width="512" xmlns="http://www.w3.org/2000/svg"><g id="Customer_Service" data-name="Customer Service"><rect fill="#5aaae7" height="58" rx="4" width="44" x="10" y="3"/><g fill="#3d9ae2"><path d="m23.13 27.87a3.1 3.1 0 0 0 .87.13 2.8 2.8 0 0 0 1.05-.2 7.01 7.01 0 0 0 .62 2.18 2.977 2.977 0 0 1 -2.54-2.11z"/><path d="m38.95 22.2a6.727 6.727 0 0 0 -1.11-3.05 6.912 6.912 0 0 1 2.49 2.87c-.11-.01-.22-.02-.33-.02a2.8 2.8 0 0 0 -1.05.2z"/><path d="m37 36.89-2-.89v-2.68a7.192 7.192 0 0 0 2.67-2.22 6.955 6.955 0 0 0 1.28-3.3 2.8 2.8 0 0 0 1.05.2 3.011 3.011 0 0 0 3-3 2.777 2.777 0 0 0 -.13-.87 3 3 0 0 1 -.87 5.87 2.8 2.8 0 0 1 -1.05-.2 6.955 6.955 0 0 1 -1.28 3.3 7.192 7.192 0 0 1 -2.67 2.22z"/><path d="m46 45.9v7.1h-24v-2h22v-7.1a5.923 5.923 0 0 0 -.88-3.12 5.989 5.989 0 0 1 2.88 5.12z"/></g><circle cx="32" cy="56" fill="#ff9811" r="2"/><path d="m44 43.9v7.1h-24v-7.1a6 6 0 0 1 3.56-5.48l5.44-2.42a3 3 0 0 0 6 0l5.44 2.42a6 6 0 0 1 3.56 5.48z" fill="#00ccb3"/><path d="m38.95 22.2a7.012 7.012 0 0 1 .05.8h-2l-2-2-4 2h-6a7 7 0 0 1 11.95-4.95 6.934 6.934 0 0 1 2 4.15z" fill="#57565c"/><path d="m29 33v3a3 3 0 0 0 6 0v-3z" fill="#ffb655"/><path d="m37 23-2-2-4 2h-6v4a7 7 0 0 0 14 0v-4z" fill="#ffc477"/><path d="m31 6h2v2h-2z" fill="#1e81ce"/><path d="m17 50h30v2h-30z" fill="#1e81ce"/><path d="m28 25h2v2h-2z" fill="#cc7400"/><path d="m34 25h2v2h-2z" fill="#cc7400"/><path d="m43 25h-2v-4a9 9 0 0 0 -18 0v4h-2v-4a11 11 0 0 1 22 0z" fill="#c6c5ca"/><path d="m41 32h-9v-2h9v-5h2v5a2 2 0 0 1 -2 2z" fill="#d8d7da"/><path d="m42 22.77a3 3 0 0 1 -2 5.23 2.8 2.8 0 0 1 -1.05-.2 7.012 7.012 0 0 0 .05-.8v-4a7.012 7.012 0 0 0 -.05-.8 2.8 2.8 0 0 1 1.05-.2 2.965 2.965 0 0 1 2 .77z" fill="#898890"/><path d="m25 23v4a7.012 7.012 0 0 0 .05.8 2.8 2.8 0 0 1 -1.05.2 3 3 0 0 1 -3-3 3.011 3.011 0 0 1 3-3 2.8 2.8 0 0 1 1.05.2 7.012 7.012 0 0 0 -.05.8z" fill="#898890"/></g></svg>