<svg height="512" viewBox="0 0 64 64" width="512" xmlns="http://www.w3.org/2000/svg"><g id="Smartphone_aleart" data-name="Smartphone aleart"><rect fill="#005ece" height="58" rx="4" width="38" x="13" y="3"/><path d="m48 7v44a1 1 0 0 1 -1 1h-30a1 1 0 0 1 -1-1v-44a1 1 0 0 1 1-1h5.93a1.981 1.981 0 0 1 1.66.89l.82 1.22a1.981 1.981 0 0 0 1.66.89h9.86a1.981 1.981 0 0 0 1.66-.89l.82-1.22a1.981 1.981 0 0 1 1.66-.89h5.93a1 1 0 0 1 1 1z" fill="#ffcd00"/><rect fill="#ffcd00" height="3" rx="1" width="8" x="28" y="55"/><path d="m16.473 51.828a.979.979 0 0 0 .527.172h30a1 1 0 0 0 1-1v-34a34.981 34.981 0 0 1 -31.527 34.828z" fill="#ebbf00"/><path d="m32 20-12 24h24z" fill="#ed1c24"/><g fill="#f1f2f2"><path d="m30 7h-1a1 1 0 0 1 0-2h1a1 1 0 0 1 0 2z"/><path d="m35 7h-1a1 1 0 0 1 0-2h1a1 1 0 0 1 0 2z"/><path d="m43 57h-2a1 1 0 0 1 0-2h2a1 1 0 0 1 0 2z"/><path d="m23 57h-2a1 1 0 0 1 0-2h2a1 1 0 0 1 0 2z"/><path d="m32 38a1 1 0 0 1 -1-1v-10a1 1 0 0 1 2 0v10a1 1 0 0 1 -1 1z"/><path d="m32 42a1 1 0 0 1 -1-1v-1a1 1 0 0 1 2 0v1a1 1 0 0 1 -1 1z"/></g><path d="m9 47a1 1 0 0 1 -.708-.294l-2-2.005a1 1 0 0 1 0-1.412l1.3-1.3-1.295-1.3a1 1 0 0 1 0-1.413l1.294-1.3-1.299-1.284a1 1 0 0 1 0-1.414l1.292-1.291-1.291-1.287a1 1 0 0 1 0-1.415l1.292-1.292-1.292-1.293a1 1 0 0 1 0-1.415l1.292-1.291-1.292-1.294a1 1 0 0 1 0-1.414l1.292-1.286-1.292-1.3a1 1 0 0 1 0-1.415l2-2a1 1 0 1 1 1.414 1.416l-1.292 1.299 1.292 1.291a1 1 0 0 1 0 1.415l-1.292 1.288 1.292 1.292a1 1 0 0 1 0 1.415l-1.292 1.291 1.292 1.291a1 1 0 0 1 0 1.415l-1.292 1.292 1.292 1.288a1 1 0 0 1 0 1.416l-1.293 1.292 1.294 1.293a1 1 0 0 1 0 1.414l-1.294 1.3 1.294 1.3a1 1 0 0 1 0 1.413l-1.295 1.294 1.3 1.3a1 1 0 0 1 -.713 1.7z" fill="#2488ff"/><path d="m55 47a1 1 0 0 1 -.708-1.706l1.3-1.3-1.3-1.3a1 1 0 0 1 0-1.413l1.293-1.3-1.293-1.3a1 1 0 0 1 0-1.414l1.293-1.293-1.293-1.292a1 1 0 0 1 0-1.416l1.291-1.288-1.29-1.278a1 1 0 0 1 0-1.415l1.292-1.291-1.292-1.294a1 1 0 0 1 0-1.415l1.292-1.292-1.292-1.293a1 1 0 0 1 0-1.415l1.292-1.285-1.291-1.289a1 1 0 1 1 1.412-1.416l2 2a1 1 0 0 1 0 1.415l-1.291 1.29 1.292 1.291a1 1 0 0 1 0 1.414l-1.293 1.293 1.293 1.291a1 1 0 0 1 0 1.415l-1.293 1.292 1.293 1.292a1 1 0 0 1 0 1.415l-1.291 1.289 1.292 1.291a1 1 0 0 1 0 1.414l-1.293 1.294 1.293 1.3a1 1 0 0 1 0 1.413l-1.294 1.3 1.3 1.3a1 1 0 0 1 0 1.412l-2 2.005a1 1 0 0 1 -.714.279z" fill="#2488ff"/></g></svg>