<svg xmlns="http://www.w3.org/2000/svg" xmlns:xlink="http://www.w3.org/1999/xlink" viewBox="0 0 541.07 136.21"><defs><style>.cls-1{fill:url(#linear-gradient);}.cls-2{opacity:0.37;}.cls-3{fill:#010101;}.cls-4{fill:#fed420;}.cls-5{fill:#ffc521;}.cls-6{fill:#e29e26;}.cls-7{fill:#f2ae1d;}.cls-8{fill:#231f20;}</style><linearGradient id="linear-gradient" x1="65.56" y1="-168.73" x2="69.61" y2="132.9" gradientUnits="userSpaceOnUse"><stop offset="0" stop-color="#fff"/><stop offset="1"/></linearGradient></defs><g id="Layer_2" data-name="Layer 2"><g id="Layer_1-2" data-name="Layer 1"><rect class="cls-1" width="137.48" height="136.21" rx="39.89"/><g class="cls-2"><path class="cls-3" d="M119.29,58.89a14.15,14.15,0,0,0,2-10,13.57,13.57,0,0,0-2.09-5.15,14.47,14.47,0,0,0-6.4-5.36,17,17,0,0,0-2.68-.85c-1.82-.42-3.52-.53-4.93-1l-.52-.16a3.63,3.63,0,0,1-.44-.19,4.16,4.16,0,0,1-.77-.47,10.88,10.88,0,0,1-1.4-1.67,10,10,0,0,0-2.14-2.1,11.17,11.17,0,0,0-1.6-.94A5.51,5.51,0,0,0,98,29.92a5.34,5.34,0,0,0-1.3-2A9.82,9.82,0,0,0,93.31,26l-1.5-.58c-.24-.1-.47-.19-.69-.3l-.7-.36c-.94-.49-1.88-.95-2.81-1.46-3.73-2-7.44-4.61-11.85-6.23a27.29,27.29,0,0,0-3.37-1l-1.65-.35c-.58-.12-1.17-.22-1.76-.29a20.27,20.27,0,0,0-7.19.36A20.63,20.63,0,0,0,58.37,17l-.81.38c-.27.13-.48.25-.7.35-.53.25-1,.51-1.54.77A64.13,64.13,0,0,0,49.55,22c-.93.62-1.85,1.27-2.74,1.91s-1.74,1.24-2.63,1.82Q41.5,27.49,38.69,29l-.66.36-.68.3-1.48.64-3,1.24L29.79,32.8c-.52.22-1,.44-1.59.71s-1,.52-1.52.8a29.67,29.67,0,0,0-5.66,4l-.63.57c-.22.22-.44.44-.64.66A13.4,13.4,0,0,0,18.59,41,11.79,11.79,0,0,0,17,44.33a13.77,13.77,0,0,0-.5,3.6,15.49,15.49,0,0,0,.39,3.54A22.53,22.53,0,0,0,19,57.14a10,10,0,0,0-1,1.83,11.12,11.12,0,0,0-.72,2.76A13,13,0,0,0,17.77,67l0,.24-.09.51c0,.35-.08.69-.1,1a14.16,14.16,0,0,0,0,2.06,10.94,10.94,0,0,0,1,4.06,8.91,8.91,0,0,0,2.68,3.27c1.1.83,2.23,1.46,3.18,2.2a9.45,9.45,0,0,1,2.34,2.74A21,21,0,0,0,29,86.37a8.85,8.85,0,0,0,7.25,2.74,4.53,4.53,0,0,0,1.46.57,8.72,8.72,0,0,0,1.61.18,9.35,9.35,0,0,0,3.16-.47q-.37.09-.75.15a9.19,9.19,0,0,1-3.18.13,5.21,5.21,0,0,1-2.35-.81,8.54,8.54,0,0,1-6.71-2.58c-1.54-1.64-2.24-3.84-3.72-5.51s-3.56-2.51-5.06-4.1a9.13,9.13,0,0,1-2.27-6.15,13.58,13.58,0,0,1,.31-3.3A1,1,0,0,1,18.8,67a12,12,0,0,1-.33-5.24,10.5,10.5,0,0,1,1.1-3.22,7.43,7.43,0,0,1,.89-1.27.54.54,0,0,0-.07-.13,27.52,27.52,0,0,1-1.76-4,14.16,14.16,0,0,1-.55-7.49c0-.16.07-.32.11-.48h0a8.93,8.93,0,0,1,1.24-2.78,11.51,11.51,0,0,1,2.05-2.45l.19-.17A29.36,29.36,0,0,1,28.86,35c1.74-.83,6.85-2.69,9.85-4A75,75,0,0,0,48,25.22a60.34,60.34,0,0,1,9.84-6,18.12,18.12,0,0,1,6.32-2,20,20,0,0,1,7.16.5,23.54,23.54,0,0,1,2.57.64c4.74,1.47,8.84,4.34,13.15,6.69,1.09.59,2.18,1.15,3.3,1.66s2.11.8,3.15,1.22a5.12,5.12,0,0,1,2.74,2.13,3.51,3.51,0,0,1,.4,2,8.49,8.49,0,0,1,3.67,2.4c.63.72,1.14,1.53,1.83,2.19a5.51,5.51,0,0,0,1.86,1.11,23,23,0,0,0,4.35.88,16.36,16.36,0,0,1,4.29,1.18,13.41,13.41,0,0,1,6.22,5.94,12.62,12.62,0,0,1,1.08,8.62,13.4,13.4,0,0,1-1.7,4.12c-.06.09-.12.18-.17.27s0,0,0,.08a18.41,18.41,0,0,1,1.08,2.45,16,16,0,0,1,.58,9.19,6.36,6.36,0,0,1-2.57,3.83,4.32,4.32,0,0,1-1.25.57,1,1,0,0,1-.09.27,8.75,8.75,0,0,1-5.12,4.65,5.24,5.24,0,0,1,0,3.16,4.39,4.39,0,0,1-3.57,2.83,3.5,3.5,0,0,1-.45.07,5.32,5.32,0,0,0,2.1-.48A4.37,4.37,0,0,0,110.41,84a4.6,4.6,0,0,0,.82-2.05,5.57,5.57,0,0,0-.06-1.91,7.5,7.5,0,0,0,3.07-1.82,11.06,11.06,0,0,0,1.28-1.45c.19-.25.37-.52.54-.79l.25-.41a2.3,2.3,0,0,0,.12-.23,6.11,6.11,0,0,0,3.49-3.12,9.19,9.19,0,0,0,.8-2.31,16,16,0,0,0,.33-2.38,17.65,17.65,0,0,0-.39-4.75A19.08,19.08,0,0,0,119.29,58.89Z"/><path class="cls-3" d="M68,43.14l5.46-2.82A53.28,53.28,0,0,0,68,43.14Z"/><path class="cls-3" d="M97.35,63.54a40.52,40.52,0,0,0,4.09,1c1.27.2,2.57.29,3.83.59a10.66,10.66,0,0,1,3.56,1.67,12.13,12.13,0,0,0,3.29,1.89,2.74,2.74,0,0,0,2.81-.54,3,3,0,0,0,.8-2.44,3.86,3.86,0,0,0-1.5-2.42c-1-.75-2.19-.91-3.26-1.46-.57-.3-1.08-.7-1.67-1a6.92,6.92,0,0,0-1.78-.49,29.94,29.94,0,0,0-4.23-.37c-2.74-.08-5.49,0-8.23.13a53.81,53.81,0,0,0-7.6.69,27.68,27.68,0,0,0-6.31,1.9A68.14,68.14,0,0,1,89,62.3,34,34,0,0,1,97.35,63.54Z"/><path class="cls-3" d="M109.91,75.42a2.32,2.32,0,0,0,.15-2.52,5.43,5.43,0,0,0-2.31-2.14c-1-.61-2.13-1.17-3.21-1.73a38.13,38.13,0,0,0-6.86-2.87A42.83,42.83,0,0,0,89.87,65a31.17,31.17,0,0,0-6.69,0,21.61,21.61,0,0,1,3.94,1.37c2.38,1,4.71,2.22,7,3.39s4.66,2.42,7,3.69c1.13.62,2.24,1.28,3.38,1.89a6.89,6.89,0,0,0,3.19,1A3,3,0,0,0,109.91,75.42Z"/><path class="cls-3" d="M53.27,54.34a59,59,0,0,0-6,4.56,52.34,52.34,0,0,0-5.65,5.18,22.72,22.72,0,0,0-3.92,6,22,22,0,0,0-1.16,3.34c-.15.59-.27,1.19-.37,1.79a5.36,5.36,0,0,0-.12,1.44s0,.12.06.2.18-.1.26-.16c.51-.32,1-.68,1.48-1,.92-.69,1.81-1.41,2.68-2.17,1.77-1.56,3.45-3.23,5.1-4.91s3.27-3.37,5-4.95a44.62,44.62,0,0,1,6-4.59c2.33-1.49,4.73-2.85,7.11-4.26l7.32-4.32c2.44-1.44,4.87-2.9,7.3-4.36s4.81-2.83,7.13-4.39c1.11-.74,2.21-1.52,3.29-2.3l1.69-1.24c.18-.13,1-.59,1-.77s-.19-.25-.29-.29a1.19,1.19,0,0,0-.72.06,18,18,0,0,0-1.69.74c-1.23.52-2.49,1-3.75,1.42-2.52.85-5.08,1.55-7.6,2.38a63.11,63.11,0,0,0-7.3,2.92c-4.63,2.19-13.35,7.92-13.56,8A18.38,18.38,0,0,0,53.27,54.34Z"/><path class="cls-3" d="M58.62,42.12c-2,1.07-4,2.21-6,3.33q-6.16,3.44-12.32,6.88a49.75,49.75,0,0,0-5.65,3.51,28,28,0,0,0-4.14,3.85,30.29,30.29,0,0,0-3.31,4.58,22.66,22.66,0,0,0-1.32,2.54,3.71,3.71,0,0,0-.33,2.66,1.56,1.56,0,0,0,1.41,1,1,1,0,0,0,.36-.13A71.11,71.11,0,0,1,32,64.24a99.33,99.33,0,0,1,9.94-8.73,106.47,106.47,0,0,1,10.4-6.64c3.59-2.06,7.24-4,10.84-6S74,36.3,74.07,36.36l.37-.29a16,16,0,0,0,2.79-2.62l-.45.26a101.12,101.12,0,0,1-12,5.69A63.07,63.07,0,0,0,58.62,42.12Z"/><path class="cls-3" d="M62.14,22.36a15.77,15.77,0,0,0-3.63.18,13.16,13.16,0,0,0-4.86,2.18c-.51.35-1,.71-1.49,1.09l-.42.39a49.4,49.4,0,0,1-4.53,3.89,40.09,40.09,0,0,1-6.1,3.43c-2.24,1.09-4.48,2.18-6.71,3.29A42,42,0,0,0,29,39.7c-1.43,1-3,2.4-3.41,4.16A1.47,1.47,0,0,0,25.75,45a1.17,1.17,0,0,0,.58.42,3.28,3.28,0,0,0,2.27-.22c1.89-.8,3.39-2.31,5-3.51a34.84,34.84,0,0,1,5.95-3.14c1.93-.9,3.8-1.93,5.65-3,3.67-2.11,7.37-4.35,11.51-5.43a28.62,28.62,0,0,1,6.9-.69,14.2,14.2,0,0,0,6.1-1,5.73,5.73,0,0,0,2.09-1.62.8.8,0,0,0,.15-1,4.28,4.28,0,0,0-.71-1,8.67,8.67,0,0,0-5.6-2.23C64.5,22.48,63.32,22.41,62.14,22.36Z"/><path class="cls-3" d="M48.67,44c2.81-1.49,5.66-2.92,8.5-4.35,1.38-.7,2.75-1.41,4.17-2S64.17,36.54,65.6,36a18.14,18.14,0,0,0,4-2c.57-.37,1.11-.78,1.65-1.2q-5.42.81-10.75,2.06a30.38,30.38,0,0,0-5.31,1.6,46.46,46.46,0,0,0-4.81,2.6,102.55,102.55,0,0,0-8.87,5.67,45.92,45.92,0,0,0-7.59,6.88,21.57,21.57,0,0,1-1.6,1.71h.05l1.81-.9c.63-.32,1.27-.63,1.91-.92,1.51-1,3-1.94,4.57-2.88C43.29,47.07,45.92,45.43,48.67,44Z"/><path class="cls-3" d="M54.29,69.92c-2.21,1.79-4.39,3.62-6.6,5.41-.54.45-3.27,3.79-3.73,5.21l.33-.24,1.65-1.12c4.51-3.17,8.8-6.65,13.26-9.89S68.27,63,73,60c2.33-1.45,4.67-2.89,7.06-4.26a43.89,43.89,0,0,1,7.37-3.56c5.16-1.84,10.73-2,16.15-1.86,1.26,0,2.52.12,3.78.06a3.74,3.74,0,0,0,2.61-.95c.13-.13.06,0,.16-.19l.14-.25a.31.31,0,0,0,.05-.1l0-.06.09-.28c0-.11,0-.22.07-.33s0-.15,0-.18a4.7,4.7,0,0,0,0-.65s0,0,0,0l0-.06a.8.8,0,0,0,0-.15c0-.1,0-.2-.07-.3s-.06-.23-.1-.35l-.07-.18a5.28,5.28,0,0,0-.33-.62l-.2-.3,0,0-.08-.09c-1.43-1.66-3.89-2-6-2.1a21.57,21.57,0,0,0-8,.72A33.81,33.81,0,0,0,92,45.47c-1.22.58-2.43,1.17-3.64,1.78q-3.6,1.81-7.13,3.8c-4.7,2.67-9.28,5.57-13.7,8.69S58.6,66.4,54.29,69.92Z"/><path class="cls-3" d="M80.66,67.66c2.68,1.34,5.4,2.63,8,4.08,1.25.69,5.23,3.27,9,5.84s7.24,5.1,7.92,5.13a4.37,4.37,0,0,0,1.61-.23,2.57,2.57,0,0,0,.87-.5,15.93,15.93,0,0,0-2.34-2.51A30.69,30.69,0,0,0,102.49,77a94,94,0,0,0-13.66-7.45c-2.39-1.09-4.76-2.27-7.24-3.16a30.47,30.47,0,0,0-3.72-1.1c-.81-.19-1.63-.32-2.45-.44l-.15.1.65.32Z"/><path class="cls-3" d="M110.64,83a5.24,5.24,0,0,0,0-3.16,8.75,8.75,0,0,0,5.12-4.65,1,1,0,0,0,.09-.27,4.32,4.32,0,0,0,1.25-.57,6.36,6.36,0,0,0,2.57-3.83,16,16,0,0,0-.58-9.19,18.41,18.41,0,0,0-1.08-2.45s0,0,0-.08.11-.18.17-.27a13.4,13.4,0,0,0,1.7-4.12,12.62,12.62,0,0,0-1.08-8.62,13.41,13.41,0,0,0-6.22-5.94,16.36,16.36,0,0,0-4.29-1.18,23,23,0,0,1-4.35-.88,5.51,5.51,0,0,1-1.86-1.11c-.69-.66-1.2-1.47-1.83-2.19a8.49,8.49,0,0,0-3.67-2.4,3.51,3.51,0,0,0-.4-2,5.12,5.12,0,0,0-2.74-2.13c-1-.42-2.12-.76-3.15-1.22s-2.21-1.07-3.3-1.66c-4.31-2.35-8.41-5.22-13.15-6.69a23.54,23.54,0,0,0-2.57-.64,30.17,30.17,0,0,1,6,2.15,50.47,50.47,0,0,1,5.67,3.26,43.25,43.25,0,0,0,5.61,3.57c.49.22,1,.41,1.52.59h0c3.13,1.46,3.94,3.6,2.8,4A10.41,10.41,0,0,0,90,33.45c2.81-1.43,6.62-.29,6.62-.29,3.51,1.72,3.27,5.07,1.81,5s-3.29,2.18-3.29,2.18c4.11-1.34,10.43-.91,10.43-.91a16.3,16.3,0,0,1,4.6.83,12.09,12.09,0,0,1,3.4,2,10.09,10.09,0,0,1,2.87,4.92,7.64,7.64,0,0,1-.62,5.23,6.26,6.26,0,0,1-4.08,3.24,6.53,6.53,0,0,1-3.22-.24,22.32,22.32,0,0,0-3.1-.78,26.05,26.05,0,0,0-6.24,0l-.46,0h0s-12.39-.91-31.28,13.91l-2.18,1.7c-1.24,1-2.59,2-4.92,4-1.11.92-2.44,2-4.08,3.4-2.22,1.86-4.24,4.43-6,6a72.26,72.26,0,0,1-5.73,4.69l-.39.28h0a40.42,40.42,0,0,0,7.11-4.59c.79-.62,6.85-5.82,12.56-10.41,3.3-2.64,6.52-5.08,8.28-6.38a22.44,22.44,0,0,1,2.28.59,31.9,31.9,0,0,1,4.88,2c3.23,1.63,6.38,3.44,9.46,5.34s6,3.92,8.93,6.06c1.42,1,2.78,2.2,4.25,3.18a7.58,7.58,0,0,0,4.56,1.44,5.35,5.35,0,0,0,.56-.07A4.39,4.39,0,0,0,110.64,83Zm-4.54,1.61a5.4,5.4,0,0,1-1-.18c-2.13-.61-3.83-2.13-5.47-3.54A45.93,45.93,0,0,0,94,76.83c-2-1.23-4-2.36-6-3.53s-4-2.46-6.09-3.67a56,56,0,0,0-8-3.68c.3-.23.75-.57,1.34-1l.15-.1c3.13-2.14,9.74-6,17.42-6.79,12.91-1.25,18.19,1.21,20.89,3.08a9.19,9.19,0,0,1,4,6c0,.3,0,.59,0,.88-.07.46-.06.4,0,0a9.13,9.13,0,0,1-.64,3,2.29,2.29,0,0,1-1.41,1.44,2.24,2.24,0,0,1-2.07-.73,22.67,22.67,0,0,0-3.69-2.67c-.66-.37-1.34-.72-2-1a15.4,15.4,0,0,1,4,3.42A3.8,3.8,0,0,1,113,74.44c-.17,1.06-1.17,1.78-2,2.35a5.13,5.13,0,0,1-3,1,6.43,6.43,0,0,1-2.51-.57c.88.8,1.73,1.64,2.54,2.51a4,4,0,0,1,1.19,2.12,2.27,2.27,0,0,1-.81,1.93A4.08,4.08,0,0,1,106.1,84.62Z"/><path class="cls-3" d="M76.14,23.05c4.94,4.49,4.24,8.23,4.24,8.23C83,28,78.62,22.43,78.62,22.43A82.86,82.86,0,0,0,87,28.16c1.51.78,2.2,1.8,1.56,3.08-1.46,2.7-9.23,5.27-13.25,7A28.53,28.53,0,0,0,68,43.14a53.28,53.28,0,0,1,5.46-2.82L68,43.14c3.49-1.76,10.55-5.1,15.48-6,6.79-1.24,6.67-2.74,8.93-3.11s5.28,3.61,1.51,5.19-14,9.51-14,9.51,10-6.31,19-7.51l1.28-.09c.64,0,1.29-.08,2-.1h0c1,0,1.79,0,2.38,0a14.84,14.84,0,0,1,5,1.08l.23.1.07,0,.16.08.07,0,.16.08.07,0,.17.09,0,0,.18.1,0,0,.19.11,0,0,.2.12h0l.22.14a5.48,5.48,0,0,1,2,6.06c-.83,3.5-4.77,3.82-7.65,3.58h0l-.5-.1h0l-.48-.08h0c-.34-.06-.69-.1-1-.15h0l-.46,0h-.13l-.36,0-.16,0-.35,0h-.14l-.49,0a34.43,34.43,0,0,0-13.85,2.57,76.93,76.93,0,0,0-13.1,7.06Q68.22,66,62,70.56T49.49,80l-3,2.41a11.4,11.4,0,0,1-3.15,2.26,2.22,2.22,0,0,1-2.76-1A11.37,11.37,0,0,1,42,80a48,48,0,0,1,5.83-7.29,86,86,0,0,1,14.45-12c3-2,9.08-6.61,8.68-6.39-2.81,1.58-5.66,3.11-8.41,4.81s-5.42,3.49-8,5.4a63.49,63.49,0,0,0-9.34,8.22l.18-.26c-1.58,1.65-3.16,3.31-4.69,5-.8.9-1.59,1.8-2.38,2.72s-1.56,2-2.89,1.83A3.43,3.43,0,0,1,33.12,80a6.36,6.36,0,0,1-.54-2.92,15.14,15.14,0,0,1,1.74-5.89,32.48,32.48,0,0,1,7.57-9.53A84.56,84.56,0,0,1,52.28,54l.76-.7a26.69,26.69,0,0,0-5.58,2.85q-2.7,1.63-5.25,3.47a76.92,76.92,0,0,0-8.55,7.15,32,32,0,0,0-3.73,4.08A15.52,15.52,0,0,0,28,74.33c-1.5-.27-6.61-1.61-5.64-7.1,1.14-6.42,14-14.23,14-14.23A38.73,38.73,0,0,0,22,62.68c.24-4.75,5.79-8.93,5.79-8.93h0l.08,0,.08-.05.25-.15h0a2.61,2.61,0,0,1,.28-.17l.07,0,.22-.14.08-.05.29-.18,0,0,.26-.17.09-.06.23-.15.07,0,.3-.2.07,0,.24-.16.1-.07.25-.18.06,0,.32-.23.08-.06.25-.18.1-.07L32,51h0l.34-.26.09-.07.26-.2.09-.07.34-.28.05,0,.3-.25.11-.08.27-.23.09-.07.35-.31.08-.06.29-.25.11-.1.31-.27.06-.06.37-.33.1-.09.29-.27.11-.1.39-.36C45.16,38.88,60,33.52,60,33.52c-10.44.87-18.61,7.85-22.51,10.22s-13.2,10.59-15.09,5,3.46-11.44,4.18-11.83c-.43.22-.85.45-1.26.71a11.78,11.78,0,0,0-4.14,4.13,13.63,13.63,0,0,0-1.68,5.85,18.77,18.77,0,0,0,1,7.08,23.49,23.49,0,0,0,.93,2.41c-.26.38-.53.76-.79,1.15a10.11,10.11,0,0,0-1.4,3.59,11.15,11.15,0,0,0,0,4,8.79,8.79,0,0,0,.39,1.61,9.63,9.63,0,0,0-.21,3.17,11.5,11.5,0,0,0,2.41,6,11.66,11.66,0,0,0,2.46,2.24,21.9,21.9,0,0,1,2.66,2,12.24,12.24,0,0,1,1.83,3,7.08,7.08,0,0,0,2.48,2.59,8.67,8.67,0,0,0,4,1.23q.42,0,.84,0a2.36,2.36,0,0,0,.42.36,4.85,4.85,0,0,0,4,1.46,11.49,11.49,0,0,0,4.14-1.15,72.26,72.26,0,0,0,5.73-4.69c1.72-1.53,3.74-4.1,6-6,1.64-1.38,3-2.48,4.08-3.4.86-.76,1.73-1.51,2.59-2.21s1.56-1.22,2.33-1.76l2.18-1.7C86.35,53.84,98.74,54.75,98.74,54.75h0l.46,0a26.05,26.05,0,0,1,6.24,0,22.32,22.32,0,0,1,3.1.78,6.53,6.53,0,0,0,3.22.24,6.26,6.26,0,0,0,4.08-3.24,7.64,7.64,0,0,0,.62-5.23,10.09,10.09,0,0,0-2.87-4.92,12.09,12.09,0,0,0-3.4-2,16.3,16.3,0,0,0-4.6-.83s-6.32-.43-10.43.91c0,0,1.84-2.27,3.29-2.18s1.7-3.26-1.81-5c0,0-3.81-1.14-6.62.29a10.41,10.41,0,0,1,2.8-2.15c1.14-.4.33-2.54-2.8-4h0c-.51-.18-1-.37-1.52-.59a43.25,43.25,0,0,1-5.61-3.57,50.47,50.47,0,0,0-5.67-3.26,30.17,30.17,0,0,0-6-2.15,20,20,0,0,0-7.16-.5,18.12,18.12,0,0,0-6.32,2l.38-.16C64.08,16.55,71.74,19.06,76.14,23.05Z"/><path class="cls-3" d="M109.23,81.84A4,4,0,0,0,108,79.72c-.81-.87-1.66-1.71-2.54-2.51a6.43,6.43,0,0,0,2.51.57,5.13,5.13,0,0,0,3-1c.82-.57,1.82-1.29,2-2.35a3.8,3.8,0,0,0-1.12-2.93,15.4,15.4,0,0,0-4-3.42c.7.31,1.38.66,2,1a22.67,22.67,0,0,1,3.69,2.67,2.24,2.24,0,0,0,2.07.73,2.29,2.29,0,0,0,1.41-1.44,9.13,9.13,0,0,0,.64-3c-.06.36-.07.42,0,0,0-.29,0-.58,0-.88a9.19,9.19,0,0,0-4-6c-2.7-1.87-8-4.33-20.89-3.08-7.68.75-14.29,4.65-17.42,6.79.82.12,1.64.25,2.45.44a30.47,30.47,0,0,1,3.72,1.1c2.48.89,4.85,2.07,7.24,3.16A94,94,0,0,1,102.49,77a30.69,30.69,0,0,1,3.22,2.45A15.93,15.93,0,0,1,108.05,82a2.57,2.57,0,0,1-.87.5,4.37,4.37,0,0,1-1.61.23c-.68,0-4.18-2.58-7.92-5.13s-7.73-5.15-9-5.84c-2.61-1.45-5.33-2.74-8-4.08l-4.74-2.37L75.27,65c-.59.41-1,.75-1.34,1a56,56,0,0,1,8,3.68c2,1.21,4,2.48,6.09,3.67s4.05,2.3,6,3.53a45.93,45.93,0,0,1,5.62,4.07c1.64,1.41,3.34,2.93,5.47,3.54a5.4,5.4,0,0,0,1,.18,4.08,4.08,0,0,0,2.32-.85A2.27,2.27,0,0,0,109.23,81.84ZM81.15,62.69a27.68,27.68,0,0,1,6.31-1.9,53.81,53.81,0,0,1,7.6-.69c2.74-.1,5.49-.21,8.23-.13a29.94,29.94,0,0,1,4.23.37,6.92,6.92,0,0,1,1.78.49c.59.27,1.1.67,1.67,1,1.07.55,2.3.71,3.26,1.46a3.86,3.86,0,0,1,1.5,2.42,3,3,0,0,1-.8,2.44,2.74,2.74,0,0,1-2.81.54,12.13,12.13,0,0,1-3.29-1.89,10.66,10.66,0,0,0-3.56-1.67c-1.26-.3-2.56-.39-3.83-.59a40.52,40.52,0,0,1-4.09-1A34,34,0,0,0,89,62.3,68.14,68.14,0,0,0,81.15,62.69ZM101.1,73.42q-3.45-1.9-7-3.69c-2.31-1.17-4.64-2.35-7-3.39A21.61,21.61,0,0,0,83.18,65a31.17,31.17,0,0,1,6.69,0,42.83,42.83,0,0,1,7.81,1.18A38.13,38.13,0,0,1,104.54,69c1.08.56,2.16,1.12,3.21,1.73a5.43,5.43,0,0,1,2.31,2.14,2.32,2.32,0,0,1-.15,2.52,3,3,0,0,1-2.24.91,6.89,6.89,0,0,1-3.19-1C103.34,74.7,102.23,74,101.1,73.42Z"/><path class="cls-3" d="M40.45,89.53a4.85,4.85,0,0,1-4-1.46,2.36,2.36,0,0,1-.42-.36q-.42,0-.84,0a8.67,8.67,0,0,1-4-1.23,7.08,7.08,0,0,1-2.48-2.59,12.24,12.24,0,0,0-1.83-3,21.9,21.9,0,0,0-2.66-2,11.66,11.66,0,0,1-2.46-2.24,11.5,11.5,0,0,1-2.41-6,9.63,9.63,0,0,1,.21-3.17,8.79,8.79,0,0,1-.39-1.61,11.15,11.15,0,0,1,0-4,10.11,10.11,0,0,1,1.4-3.59c.26-.39.53-.77.79-1.15a23.49,23.49,0,0,1-.93-2.41,18.77,18.77,0,0,1-1-7.08,13.63,13.63,0,0,1,1.68-5.85,11.78,11.78,0,0,1,4.14-4.13c.41-.26.83-.49,1.26-.71-.72.39-6.06,6.23-4.18,11.83s11.19-2.61,15.09-5S49.56,34.39,60,33.52c0,0-14.84,5.36-23.64,13.71l-.39.36-.11.1-.29.27-.1.09-.37.33-.06.06-.31.27-.11.1-.29.25-.08.06-.35.31-.09.07-.27.23-.11.08-.3.25-.05,0-.34.28-.09.07-.26.2-.09.07L32,51h0l-.31.23-.1.07-.25.18-.08.06-.32.23-.06,0-.25.18-.1.07-.24.16-.07,0-.3.2-.07,0-.23.15-.09.06-.26.17,0,0-.29.18-.08.05-.22.14-.07,0a2.61,2.61,0,0,0-.28.17h0l-.25.15-.08.05-.08,0h0S22.26,57.93,22,62.68A38.73,38.73,0,0,1,36.36,53s-12.82,7.81-14,14.23c-1,5.49,4.14,6.83,5.64,7.1a15.52,15.52,0,0,1,1.89-3.46,32,32,0,0,1,3.73-4.08,76.92,76.92,0,0,1,8.55-7.15q2.55-1.83,5.25-3.47A26.69,26.69,0,0,1,53,53.32l-.76.7a84.56,84.56,0,0,0-10.39,7.61,32.48,32.48,0,0,0-7.57,9.53,15.14,15.14,0,0,0-1.74,5.89A6.36,6.36,0,0,0,33.12,80a3.43,3.43,0,0,0,2.27,2.12c1.33.22,2.14-1,2.89-1.83s1.58-1.82,2.38-2.72c1.53-1.69,3.11-3.35,4.69-5l-.18.26a63.49,63.49,0,0,1,9.34-8.22q3.9-2.86,8-5.4c2.75-1.7,5.6-3.23,8.41-4.81.4-.22-5.71,4.39-8.68,6.39a86,86,0,0,0-14.45,12A48,48,0,0,0,42,80a11.37,11.37,0,0,0-1.38,3.67,2.22,2.22,0,0,0,2.76,1,11.4,11.4,0,0,0,3.15-2.26l3-2.41Q55.6,75.14,62,70.56t12.78-8.69a76.93,76.93,0,0,1,13.1-7.06,34.43,34.43,0,0,1,13.85-2.57l.49,0h.14l.35,0,.16,0,.36,0h.13l.46,0h0c.34.05.69.09,1,.15h0l.48.08h0l.5.1h0c2.88.24,6.82-.08,7.65-3.58a5.48,5.48,0,0,0-2-6.06l-.22-.14h0l-.2-.12,0,0-.19-.11,0,0-.18-.1,0,0-.17-.09-.07,0-.16-.08-.07,0-.16-.08-.07,0-.23-.1a14.84,14.84,0,0,0-5-1.08c-.59,0-1.37,0-2.38,0h0c-.66,0-1.31,0-2,.1L99,41.21c-9,1.2-19,7.51-19,7.51s10.19-7.93,14-9.51.75-5.57-1.51-5.19-2.14,1.87-8.93,3.11c-4.93.91-12,4.25-15.48,6a28.53,28.53,0,0,1,7.31-4.89c4-1.74,11.79-4.31,13.25-7,.64-1.28,0-2.3-1.56-3.08a82.86,82.86,0,0,1-8.42-5.73S83,28,80.38,31.28c0,0,.7-3.74-4.24-8.23-4.4-4-12.06-6.5-18-4l-.38.16a60.34,60.34,0,0,0-9.84,6,75,75,0,0,1-9.24,5.71c-3,1.35-8.11,3.21-9.85,4a29.36,29.36,0,0,0-7.19,4.76l-.19.17a11.51,11.51,0,0,0-2.05,2.45,8.93,8.93,0,0,0-1.24,2.78h0c0,.16-.08.32-.11.48a14.16,14.16,0,0,0,.55,7.49,27.52,27.52,0,0,0,1.76,4,.54.54,0,0,1,.07.13,7.43,7.43,0,0,0-.89,1.27,10.5,10.5,0,0,0-1.1,3.22A12,12,0,0,0,18.8,67a1,1,0,0,0-.06.23,13.58,13.58,0,0,0-.31,3.3,9.13,9.13,0,0,0,2.27,6.15c1.5,1.59,3.61,2.47,5.06,4.1s2.18,3.87,3.72,5.51a8.54,8.54,0,0,0,6.71,2.58,5.21,5.21,0,0,0,2.35.81,9.19,9.19,0,0,0,3.18-.13l.65-.15a10.27,10.27,0,0,0,1.83-.73l.39-.28A11.49,11.49,0,0,1,40.45,89.53Zm-4.38-38c-.64.29-1.28.6-1.91.92l-1.81.9H32.3a21.57,21.57,0,0,0,1.6-1.71,45.92,45.92,0,0,1,7.59-6.88,102.55,102.55,0,0,1,8.87-5.67,46.46,46.46,0,0,1,4.81-2.6,30.38,30.38,0,0,1,5.31-1.6q5.33-1.24,10.75-2.06c-.54.42-1.08.83-1.65,1.2a18.14,18.14,0,0,1-4,2c-1.43.51-2.87,1-4.26,1.56s-2.79,1.33-4.17,2c-2.84,1.43-5.69,2.86-8.5,4.35s-5.38,3.1-8,4.72C39.11,49.63,37.58,50.59,36.07,51.57Zm45.14-.52q3.53-2,7.13-3.8c1.21-.61,2.42-1.2,3.64-1.78a33.81,33.81,0,0,1,3.61-1.55,21.57,21.57,0,0,1,8-.72c2.11.11,4.57.44,6,2.1l.08.09,0,0,.2.3a5.28,5.28,0,0,1,.33.62l.07.18c0,.12.07.23.1.35s0,.2.07.3a.8.8,0,0,1,0,.15l0,.06s0,0,0,0a4.7,4.7,0,0,1,0,.65s0,.17,0,.18,0,.22-.07.33l-.09.28,0,.06a.31.31,0,0,1-.05.1l-.14.25c-.1.15,0,.06-.16.19a3.74,3.74,0,0,1-2.61.95c-1.26.06-2.52,0-3.78-.06-5.42-.11-11,0-16.15,1.86A43.89,43.89,0,0,0,80,55.77C77.64,57.14,75.3,58.58,73,60q-7.05,4.39-13.77,9.26c-4.46,3.24-8.75,6.72-13.26,9.89L44.29,80.3l-.33.24c.46-1.42,3.19-4.76,3.73-5.21,2.21-1.79,4.39-3.62,6.6-5.41C58.6,66.4,63,63,67.51,59.74S76.51,53.72,81.21,51.05ZM70.13,44.63a63.11,63.11,0,0,1,7.3-2.92c2.52-.83,5.08-1.53,7.6-2.38,1.26-.43,2.52-.9,3.75-1.42a18,18,0,0,1,1.69-.74,1.19,1.19,0,0,1,.72-.06c.1,0,.29.17.29.29s-.8.64-1,.77l-1.69,1.24c-1.08.78-2.18,1.56-3.29,2.3-2.32,1.56-4.74,3-7.13,4.39s-4.86,2.92-7.3,4.36l-7.32,4.32C61.39,56.19,59,57.55,56.66,59a44.62,44.62,0,0,0-6,4.59c-1.73,1.58-3.36,3.27-5,4.95s-3.33,3.35-5.1,4.91c-.87.76-1.76,1.48-2.68,2.17-.49.36-1,.72-1.48,1-.08.06-.19.1-.26.16s-.05-.15-.06-.2a5.36,5.36,0,0,1,.12-1.44c.1-.6.22-1.2.37-1.79a22,22,0,0,1,1.16-3.34,22.72,22.72,0,0,1,3.92-6,52.34,52.34,0,0,1,5.65-5.18,59,59,0,0,1,6-4.56,18.38,18.38,0,0,1,3.3-1.7C56.78,52.55,65.5,46.82,70.13,44.63Zm6.65-10.92.45-.26a16,16,0,0,1-2.79,2.62l-.37.29c-.1-.06-7.34,4.45-10.94,6.47s-7.25,4-10.84,6a106.47,106.47,0,0,0-10.4,6.64A99.33,99.33,0,0,0,32,64.24a71.11,71.11,0,0,0-4.64,6.11,1,1,0,0,1-.36.13,1.56,1.56,0,0,1-1.41-1,3.71,3.71,0,0,1,.33-2.66,22.66,22.66,0,0,1,1.32-2.54,30.29,30.29,0,0,1,3.31-4.58,28,28,0,0,1,4.14-3.85,49.75,49.75,0,0,1,5.65-3.51q6.15-3.45,12.32-6.88c2-1.12,4-2.26,6-3.33a63.07,63.07,0,0,1,6.11-2.72A101.12,101.12,0,0,0,76.78,33.71ZM72,25.82a.8.8,0,0,1-.15,1,5.73,5.73,0,0,1-2.09,1.62,14.2,14.2,0,0,1-6.1,1,28.62,28.62,0,0,0-6.9.69c-4.14,1.08-7.84,3.32-11.51,5.43-1.85,1.06-3.72,2.09-5.65,3a34.84,34.84,0,0,0-5.95,3.14c-1.64,1.2-3.14,2.71-5,3.51a3.28,3.28,0,0,1-2.27.22,1.17,1.17,0,0,1-.58-.42,1.47,1.47,0,0,1-.13-1.16c.41-1.76,2-3.18,3.41-4.16a42,42,0,0,1,5.37-2.89c2.23-1.11,4.47-2.2,6.71-3.29a40.09,40.09,0,0,0,6.1-3.43,49.4,49.4,0,0,0,4.53-3.89l.42-.39c.49-.38,1-.74,1.49-1.09a13.16,13.16,0,0,1,4.86-2.18,15.77,15.77,0,0,1,3.63-.18c1.18.05,2.36.12,3.53.24a8.67,8.67,0,0,1,5.6,2.23A4.28,4.28,0,0,1,72,25.82Z"/><path class="cls-3" d="M95.8,103.87a.82.82,0,0,0-.29-.6h0a.87.87,0,0,0-1.22.09c-3.82,4.4-6.52,2.28-9.51-.07-2.27-1.78-4.68-3.67-7.86-3.67a7.48,7.48,0,0,0-3.09.65,6.64,6.64,0,0,0-1.72,1.15,6.36,6.36,0,0,0-1.72-1.14,7.49,7.49,0,0,0-3.09-.66c-3.2,0-6,1.92-8.64,3.68-.86.59-1.71,1.15-2.5,1.61-2.28,1.29-4.32,1.68-6.12-1.39a.88.88,0,0,0-1.17-.35.83.83,0,0,0-.45.65,13,13,0,0,0,.1,4.56,7.34,7.34,0,0,0,2.78,4.42,10,10,0,0,0,4.78,1.79,23.1,23.1,0,0,0,7.73-.49,20.35,20.35,0,0,0,5.42-1.92A11.09,11.09,0,0,0,72.11,110,11,11,0,0,0,75,112.16a20.48,20.48,0,0,0,5.42,1.92,22.84,22.84,0,0,0,7.73.49,10,10,0,0,0,4.78-1.79,7.27,7.27,0,0,0,2.78-4.42A12.78,12.78,0,0,0,95.8,103.87Z"/></g><path class="cls-4" d="M118.12,56.39a14.15,14.15,0,0,0,2-10A13.73,13.73,0,0,0,118,41.21a15.14,15.14,0,0,0-3.91-4,15.43,15.43,0,0,0-2.49-1.37,16.76,16.76,0,0,0-2.69-.85c-1.81-.42-3.51-.53-4.92-1l-.52-.16a4.68,4.68,0,0,1-.45-.19,3.64,3.64,0,0,1-.76-.48,10.72,10.72,0,0,1-1.4-1.66,11.06,11.06,0,0,0-1-1.12,8.44,8.44,0,0,0-1.17-1,9.77,9.77,0,0,0-1.59-.94,5.53,5.53,0,0,0-.28-1.08,5.1,5.1,0,0,0-1.3-2,9.79,9.79,0,0,0-3.42-1.92L90.64,23c-.23-.1-.46-.19-.68-.3l-.7-.36c-.94-.49-1.88-.95-2.81-1.46-3.73-2-7.44-4.61-11.85-6.23a26.93,26.93,0,0,0-3.38-1l-1.65-.35C69,13.12,68.41,13,67.82,13a19.25,19.25,0,0,0-10.61,1.54l-.81.38-.7.35c-.53.25-1,.51-1.54.77a64.13,64.13,0,0,0-5.77,3.5c-.93.62-1.85,1.27-2.74,1.91S43.91,22.64,43,23.22Q40.34,25,37.53,26.51l-.66.36-.68.3-1.48.64-3,1.24L28.63,30.3c-.52.22-1,.44-1.59.71s-1,.52-1.52.8a30.07,30.07,0,0,0-5.66,4l-.63.58-.65.66a14.64,14.64,0,0,0-1.15,1.45,11.79,11.79,0,0,0-1.63,3.36,14.22,14.22,0,0,0-.51,3.6A16.69,16.69,0,0,0,15.68,49a22.93,22.93,0,0,0,2.19,5.67,9.4,9.4,0,0,0-.95,1.83,11.12,11.12,0,0,0-.72,2.76,13,13,0,0,0,.41,5.28l-.05.24-.08.51c-.05.35-.08.69-.11,1a15.73,15.73,0,0,0,0,2.06,10.94,10.94,0,0,0,1,4.06,8.91,8.91,0,0,0,2.68,3.27c1.09.83,2.23,1.46,3.18,2.2a9.45,9.45,0,0,1,2.34,2.74,20.37,20.37,0,0,0,2.25,3.25,8.85,8.85,0,0,0,7.25,2.74,4.44,4.44,0,0,0,1.46.57,8.72,8.72,0,0,0,1.61.18,9.35,9.35,0,0,0,3.16-.47c-.25.06-.5.11-.76.15a9.14,9.14,0,0,1-3.17.13A5.21,5.21,0,0,1,35,86.36a8.54,8.54,0,0,1-6.71-2.58c-1.54-1.64-2.24-3.84-3.72-5.51s-3.56-2.51-5.06-4.1A9.08,9.08,0,0,1,17.27,68a13.58,13.58,0,0,1,.31-3.3,1,1,0,0,1,.06-.23,12,12,0,0,1-.33-5.24A10.5,10.5,0,0,1,18.41,56a7.06,7.06,0,0,1,.89-1.27s-.05-.09-.07-.13a26.49,26.49,0,0,1-1.76-4,14.29,14.29,0,0,1-.56-7.5l.12-.47h0a8.93,8.93,0,0,1,1.24-2.78,11.22,11.22,0,0,1,2.05-2.45l.19-.17a29.36,29.36,0,0,1,7.19-4.76c1.74-.83,6.84-2.69,9.85-4a75.08,75.08,0,0,0,9.23-5.71,60.69,60.69,0,0,1,9.85-6,18.05,18.05,0,0,1,6.32-2,20.06,20.06,0,0,1,7.16.5,24.74,24.74,0,0,1,2.57.64c4.74,1.47,8.83,4.34,13.15,6.69,1.08.59,2.18,1.15,3.3,1.66s2.11.8,3.15,1.22A5.12,5.12,0,0,1,95,27.57a3.51,3.51,0,0,1,.4,2A8.55,8.55,0,0,1,99.09,32c.63.71,1.14,1.53,1.83,2.19a5.51,5.51,0,0,0,1.86,1.11,23,23,0,0,0,4.34.88,16.26,16.26,0,0,1,4.29,1.18,13.39,13.39,0,0,1,6.23,5.94,12.62,12.62,0,0,1,1.08,8.62A13.4,13.4,0,0,1,117,56l-.18.27,0,.08A18.41,18.41,0,0,1,118,58.84a16,16,0,0,1,.58,9.19A6.36,6.36,0,0,1,116,71.86a4.32,4.32,0,0,1-1.25.57,1,1,0,0,1-.1.27,8.74,8.74,0,0,1-5.11,4.65,5.24,5.24,0,0,1,0,3.16,4.39,4.39,0,0,1-3.58,2.83,3.25,3.25,0,0,1-.45.07,5.28,5.28,0,0,0,2.1-.48,4.32,4.32,0,0,0,1.7-1.39,4.72,4.72,0,0,0,.82-2.05,5.83,5.83,0,0,0-.06-1.91,7.5,7.5,0,0,0,3.07-1.82,10.31,10.31,0,0,0,1.27-1.45,8.57,8.57,0,0,0,.55-.79l.24-.41a2.09,2.09,0,0,0,.13-.23,6.14,6.14,0,0,0,3.49-3.12,9.6,9.6,0,0,0,.8-2.31,16,16,0,0,0,.33-2.38,17.26,17.26,0,0,0-.4-4.75A18,18,0,0,0,118.12,56.39Z"/><path class="cls-5" d="M66.87,40.64l5.47-2.82A54.41,54.41,0,0,0,66.87,40.64Z"/><path class="cls-5" d="M96.19,61a40.52,40.52,0,0,0,4.09,1c1.27.2,2.57.29,3.83.59a10.47,10.47,0,0,1,3.56,1.67A12.13,12.13,0,0,0,111,66.16a2.74,2.74,0,0,0,2.81-.54,3,3,0,0,0,.8-2.44,3.9,3.9,0,0,0-1.5-2.42c-1-.75-2.19-.91-3.26-1.46-.57-.3-1.09-.7-1.67-1a6.88,6.88,0,0,0-1.79-.49,29.8,29.8,0,0,0-4.22-.37c-2.74-.08-5.49,0-8.23.13a53.81,53.81,0,0,0-7.6.69A27.53,27.53,0,0,0,80,60.19a68.14,68.14,0,0,1,7.82-.39A34,34,0,0,1,96.19,61Z"/><path class="cls-5" d="M108.75,72.92a2.32,2.32,0,0,0,.15-2.52,5.43,5.43,0,0,0-2.31-2.14c-1-.61-2.13-1.17-3.21-1.73a37.22,37.22,0,0,0-6.87-2.87,42.59,42.59,0,0,0-7.8-1.18,31.17,31.17,0,0,0-6.69,0A21.78,21.78,0,0,1,86,63.84c2.39,1,4.72,2.22,7,3.39s4.66,2.42,7,3.69c1.13.62,2.24,1.28,3.38,1.89a6.86,6.86,0,0,0,3.19,1A3,3,0,0,0,108.75,72.92Z"/><path class="cls-4" d="M52.1,51.84a60,60,0,0,0-6,4.56,53.29,53.29,0,0,0-5.65,5.17,22.94,22.94,0,0,0-3.92,6,21,21,0,0,0-1.16,3.34c-.15.59-.27,1.19-.37,1.79a5.36,5.36,0,0,0-.12,1.44l.05.2c.08-.06.19-.1.27-.16.5-.32,1-.68,1.47-1,.93-.69,1.82-1.41,2.68-2.17,1.78-1.56,3.46-3.23,5.11-4.91s3.27-3.37,5-4.95a44,44,0,0,1,6-4.59c2.33-1.49,4.73-2.85,7.11-4.26L69.93,48c2.44-1.44,4.87-2.9,7.3-4.36s4.81-2.83,7.13-4.39c1.11-.74,2.2-1.52,3.29-2.3l1.69-1.24c.18-.13,1-.59,1-.77s-.19-.25-.3-.29a1.16,1.16,0,0,0-.71.06,18.2,18.2,0,0,0-1.7.74c-1.23.52-2.48,1-3.74,1.42-2.52.85-5.08,1.55-7.61,2.38A63.68,63.68,0,0,0,69,42.13c-4.64,2.19-13.35,7.92-13.57,8A19.47,19.47,0,0,0,52.1,51.84Z"/><path class="cls-4" d="M57.45,39.62c-2,1.07-4,2.21-6,3.33L39.12,49.83a50.52,50.52,0,0,0-5.64,3.51,28,28,0,0,0-4.14,3.85A29.61,29.61,0,0,0,26,61.77a21.18,21.18,0,0,0-1.33,2.54A3.76,3.76,0,0,0,24.37,67a1.59,1.59,0,0,0,1.42,1,1,1,0,0,0,.36-.13,71.11,71.11,0,0,1,4.64-6.11A99.33,99.33,0,0,1,40.73,53a106.47,106.47,0,0,1,10.4-6.64c3.59-2.06,7.24-4,10.84-6s10.84-6.53,10.94-6.47l.37-.29A16,16,0,0,0,76.07,31l-.45.26A101.12,101.12,0,0,1,63.57,36.9,61.91,61.91,0,0,0,57.45,39.62Z"/><path class="cls-4" d="M61,19.86a15.74,15.74,0,0,0-3.63.18,13,13,0,0,0-4.86,2.18c-.51.35-1,.71-1.49,1.09l-.42.39a50.77,50.77,0,0,1-4.53,3.89A40.09,40.09,0,0,1,40,31c-2.24,1.09-4.48,2.18-6.71,3.29a42,42,0,0,0-5.37,2.89c-1.43,1-3,2.4-3.41,4.16a1.47,1.47,0,0,0,.13,1.16,1.17,1.17,0,0,0,.58.42,3.25,3.25,0,0,0,2.26-.22c1.9-.8,3.4-2.31,5-3.51a34.75,34.75,0,0,1,5.94-3.14c1.94-.9,3.81-1.93,5.65-3,3.67-2.11,7.38-4.35,11.52-5.43a28.57,28.57,0,0,1,6.9-.69,14.25,14.25,0,0,0,6.1-1,5.82,5.82,0,0,0,2.09-1.62.8.8,0,0,0,.15-1,4.6,4.6,0,0,0-.71-1,8.7,8.7,0,0,0-5.6-2.23C63.34,20,62.16,19.91,61,19.86Z"/><path class="cls-4" d="M47.51,41.47C50.32,40,53.16,38.55,56,37.12c1.38-.7,2.76-1.41,4.18-2S63,34,64.43,33.53a18,18,0,0,0,4-2c.57-.37,1.11-.78,1.65-1.2q-5.41.81-10.76,2.06A30.54,30.54,0,0,0,54,34a46.61,46.61,0,0,0-4.82,2.6,102.38,102.38,0,0,0-8.86,5.67,45.92,45.92,0,0,0-7.59,6.88c-.52.59-1,1.18-1.6,1.71h.05L33,50c.64-.32,1.27-.63,1.92-.92q2.27-1.47,4.57-2.88C42.13,44.57,44.76,42.93,47.51,41.47Z"/><path class="cls-4" d="M53.12,67.42c-2.2,1.79-4.38,3.62-6.59,5.41-.54.45-3.27,3.79-3.73,5.21l.33-.24c.55-.37,1.1-.74,1.64-1.12C49.29,73.51,53.58,70,58,66.79s9.07-6.33,13.77-9.26c2.33-1.45,4.67-2.89,7-4.26a44.26,44.26,0,0,1,7.37-3.56c5.17-1.84,10.74-2,16.16-1.86,1.26,0,2.52.12,3.78.06a3.74,3.74,0,0,0,2.61-.95c.13-.13.06,0,.15-.19l.15-.25,0-.1,0-.06.09-.28c0-.11,0-.22.07-.33s0-.15,0-.18a4.7,4.7,0,0,0,0-.65v-.09l0-.15c0-.1,0-.2-.07-.3s-.07-.23-.11-.35a.94.94,0,0,1-.06-.18c-.1-.21-.21-.42-.33-.62l-.21-.3,0,0-.08-.09c-1.43-1.66-3.89-2-6-2.1a21.36,21.36,0,0,0-8,.72A34,34,0,0,0,90.81,43c-1.21.58-2.43,1.17-3.63,1.77-2.41,1.22-4.78,2.49-7.13,3.81q-7.06,4-13.7,8.69C61.8,60.45,57.43,63.9,53.12,67.42Z"/><path class="cls-5" d="M79.5,65.16c2.68,1.34,5.39,2.63,8,4.08,1.25.69,5.23,3.27,9,5.84s7.24,5.1,7.92,5.13A4.43,4.43,0,0,0,106,80a2.68,2.68,0,0,0,.87-.5A15.54,15.54,0,0,0,104.54,77a30.57,30.57,0,0,0-3.21-2.45,94,94,0,0,0-13.66-7.45c-2.4-1.09-4.77-2.27-7.25-3.16a29.81,29.81,0,0,0-3.71-1.1c-.81-.19-1.63-.32-2.45-.44l-.15.1.65.32Z"/><path class="cls-6" d="M109.48,80.51a5.24,5.24,0,0,0,0-3.16,8.74,8.74,0,0,0,5.11-4.65,1,1,0,0,0,.1-.27,4.32,4.32,0,0,0,1.25-.57A6.36,6.36,0,0,0,118.55,68a16,16,0,0,0-.58-9.19,18.41,18.41,0,0,0-1.08-2.45l0-.08L117,56a13.4,13.4,0,0,0,1.7-4.12,12.62,12.62,0,0,0-1.08-8.62,13.39,13.39,0,0,0-6.23-5.94,16.26,16.26,0,0,0-4.29-1.18,23,23,0,0,1-4.34-.88,5.51,5.51,0,0,1-1.86-1.11c-.69-.66-1.2-1.48-1.83-2.19a8.55,8.55,0,0,0-3.67-2.4,3.51,3.51,0,0,0-.4-2,5.12,5.12,0,0,0-2.74-2.13c-1-.42-2.12-.76-3.15-1.22s-2.22-1.07-3.3-1.66c-4.32-2.35-8.41-5.22-13.15-6.69a24.74,24.74,0,0,0-2.57-.64,30.64,30.64,0,0,1,6,2.15,50.47,50.47,0,0,1,5.67,3.26,42.14,42.14,0,0,0,5.61,3.56c.49.23,1,.42,1.51.6h0c3.14,1.46,4,3.6,2.81,4A10.34,10.34,0,0,0,88.85,31c2.82-1.43,6.63-.29,6.63-.29,3.51,1.72,3.27,5.07,1.81,5S94,37.82,94,37.82c4.1-1.34,10.43-.91,10.43-.91a16.37,16.37,0,0,1,4.6.83,12.09,12.09,0,0,1,3.4,2,10.08,10.08,0,0,1,2.86,4.92,7.58,7.58,0,0,1-.61,5.23,6.28,6.28,0,0,1-4.08,3.24,6.53,6.53,0,0,1-3.22-.24,22.11,22.11,0,0,0-3.11-.78,26,26,0,0,0-6.23,0l-.47,0h0s-12.38-.91-31.28,13.9c-.79.63-1.47,1.15-2.18,1.71-1.23,1-2.58,2-4.91,4-1.11.92-2.44,2-4.08,3.4-2.22,1.86-4.24,4.43-6,6-2.87,2.56-4.91,4.1-5.73,4.69l-.39.28h0a40,40,0,0,0,7.12-4.59C50.94,81,57,75.76,62.71,71.17c3.3-2.64,6.52-5.08,8.27-6.38a22,22,0,0,1,2.29.59,31.9,31.9,0,0,1,4.88,2c3.23,1.63,6.38,3.44,9.45,5.34s6.05,3.92,8.94,6.06c1.42,1,2.78,2.2,4.25,3.18a7.56,7.56,0,0,0,4.56,1.44,4.86,4.86,0,0,0,.55-.07A4.39,4.39,0,0,0,109.48,80.51Zm-4.54,1.61a5.67,5.67,0,0,1-1-.18c-2.12-.61-3.82-2.13-5.46-3.54a45.28,45.28,0,0,0-5.63-4.07c-2-1.23-4-2.36-6-3.53s-4-2.46-6.09-3.67a56.49,56.49,0,0,0-8-3.68c.3-.23.75-.57,1.34-1l.15-.1c3.13-2.14,9.74-6,17.42-6.79,12.91-1.25,18.19,1.21,20.89,3.08a9.19,9.19,0,0,1,4,6c0,.3,0,.59,0,.88-.07.46-.06.4,0,0a9.44,9.44,0,0,1-.64,3A2.31,2.31,0,0,1,114.51,70a2.23,2.23,0,0,1-2.06-.73,23.11,23.11,0,0,0-3.69-2.67c-.67-.37-1.35-.72-2-1a15.57,15.57,0,0,1,4,3.42,3.84,3.84,0,0,1,1.12,2.93c-.17,1-1.17,1.78-2,2.35a5.13,5.13,0,0,1-3,1,6.43,6.43,0,0,1-2.51-.57c.88.8,1.73,1.64,2.54,2.51a4,4,0,0,1,1.19,2.12,2.27,2.27,0,0,1-.81,1.93A4.08,4.08,0,0,1,104.94,82.12Z"/><path class="cls-7" d="M75,20.55c4.94,4.49,4.24,8.23,4.24,8.23,2.64-3.24-1.77-8.85-1.77-8.85a83.38,83.38,0,0,0,8.43,5.73c1.51.78,2.2,1.8,1.56,3.08-1.46,2.7-9.23,5.27-13.26,7a28.75,28.75,0,0,0-7.31,4.89,54.41,54.41,0,0,1,5.47-2.82l-5.47,2.82c3.49-1.76,10.55-5.1,15.49-6,6.79-1.24,6.66-2.74,8.93-3.11s5.28,3.61,1.51,5.19-14,9.51-14,9.51,10-6.31,19-7.51l1.28-.09c.64,0,1.29-.08,1.95-.1h0c1,0,1.79,0,2.38,0a14.84,14.84,0,0,1,5,1.08l.23.1.06,0,.17.08.07,0,.16.08.06,0,.17.09.06,0,.17.1,0,0,.18.11,0,0,.21.12h0l.22.14a5.48,5.48,0,0,1,2,6.06c-.84,3.5-4.77,3.82-7.65,3.58h0l-.49-.1h0l-.48-.08h0l-1-.15h0l-.47,0H102l-.37,0-.15,0-.35,0H101l-.49,0a34.43,34.43,0,0,0-13.85,2.57,76.93,76.93,0,0,0-13.1,7.06q-6.51,4.17-12.78,8.69T48.32,77.51c-1,.8-2,1.6-3,2.41a11.3,11.3,0,0,1-3.16,2.26,2.21,2.21,0,0,1-2.75-1,11.37,11.37,0,0,1,1.38-3.67,48,48,0,0,1,5.83-7.29,86,86,0,0,1,14.45-12c3-2,9.08-6.61,8.68-6.39C67,53.45,64.12,55,61.37,56.68s-5.42,3.49-8,5.39A64.15,64.15,0,0,0,44,70.3l.18-.26C42.6,71.69,41,73.35,39.5,75c-.81.9-1.6,1.8-2.38,2.72s-1.56,2-2.89,1.83A3.43,3.43,0,0,1,32,77.47a6.36,6.36,0,0,1-.54-2.92,15.14,15.14,0,0,1,1.74-5.89,32.32,32.32,0,0,1,7.57-9.53,84.56,84.56,0,0,1,10.39-7.61l.76-.7a27,27,0,0,0-5.59,2.85q-2.68,1.63-5.24,3.47a76.92,76.92,0,0,0-8.55,7.15,32.09,32.09,0,0,0-3.74,4.08,16.37,16.37,0,0,0-1.89,3.46c-1.49-.27-6.6-1.61-5.63-7.1,1.14-6.42,14-14.23,14-14.23a38.62,38.62,0,0,0-14.34,9.68c.24-4.75,5.79-8.93,5.79-8.93h0l.08,0,.08-.05.25-.15h0l.27-.17.08,0,.22-.14.08-.05L28,50.4l0,0,.26-.17.09-.06.22-.15.08,0,.3-.2.07,0,.24-.16.1-.07.25-.18.06,0,.32-.23.08-.06.25-.18.09-.07.31-.23h0l.33-.26.1-.07.26-.2.09-.07.34-.28,0,0,.3-.25.1-.09a3.11,3.11,0,0,0,.28-.23l.09-.06.35-.31.08-.06.29-.25.11-.1.31-.27.06-.06.37-.33.1-.09.29-.27.11-.1.39-.36C44,36.38,58.84,31,58.84,31c-10.44.87-18.61,7.85-22.51,10.22s-13.21,10.59-15.09,5,3.46-11.44,4.18-11.83c-.43.22-.85.45-1.26.71A11.78,11.78,0,0,0,20,39.23a13.63,13.63,0,0,0-1.68,5.85,18.77,18.77,0,0,0,1,7.08,23.49,23.49,0,0,0,.93,2.41c-.27.38-.54.76-.79,1.15a9.93,9.93,0,0,0-1.4,3.59,11.38,11.38,0,0,0,0,4,9.72,9.72,0,0,0,.4,1.61,9.37,9.37,0,0,0-.21,3.17,11.57,11.57,0,0,0,2.4,6,12,12,0,0,0,2.47,2.24,21.9,21.9,0,0,1,2.66,2,12.24,12.24,0,0,1,1.83,3A7.08,7.08,0,0,0,30.07,84a8.55,8.55,0,0,0,4,1.22,7.69,7.69,0,0,0,.83,0,2.42,2.42,0,0,0,.43.36,4.83,4.83,0,0,0,4,1.46,11.49,11.49,0,0,0,4.14-1.15c.82-.59,2.86-2.13,5.73-4.69,1.72-1.53,3.74-4.1,6-6,1.64-1.38,3-2.48,4.08-3.4.86-.76,1.73-1.51,2.59-2.21s1.56-1.22,2.32-1.76,1.39-1.08,2.18-1.71c18.9-14.81,31.28-13.9,31.28-13.9h0l.47,0a26,26,0,0,1,6.23,0,22.11,22.11,0,0,1,3.11.78,6.53,6.53,0,0,0,3.22.24,6.28,6.28,0,0,0,4.08-3.24,7.58,7.58,0,0,0,.61-5.23,10.08,10.08,0,0,0-2.86-4.92,12.09,12.09,0,0,0-3.4-2,16.37,16.37,0,0,0-4.6-.83s-6.33-.43-10.43.91c0,0,1.84-2.27,3.29-2.18s1.7-3.26-1.81-5c0,0-3.81-1.14-6.63.29a10.34,10.34,0,0,1,2.81-2.15c1.14-.4.33-2.54-2.81-4h0c-.51-.18-1-.37-1.51-.6a42.14,42.14,0,0,1-5.61-3.56,50.47,50.47,0,0,0-5.67-3.26,30.64,30.64,0,0,0-6-2.15,20.06,20.06,0,0,0-7.16-.5,18.05,18.05,0,0,0-6.32,2l.38-.16C62.92,14.05,70.58,16.56,75,20.55Z"/><path class="cls-7" d="M108.07,79.34a4,4,0,0,0-1.19-2.12c-.81-.87-1.66-1.71-2.54-2.51a6.43,6.43,0,0,0,2.51.57,5.13,5.13,0,0,0,3-1c.82-.57,1.82-1.3,2-2.35A3.84,3.84,0,0,0,110.71,69a15.57,15.57,0,0,0-4-3.42c.69.31,1.37.66,2,1a23.11,23.11,0,0,1,3.69,2.67,2.23,2.23,0,0,0,2.06.73,2.31,2.31,0,0,0,1.42-1.44,9.44,9.44,0,0,0,.64-3c-.06.36-.07.42,0,0,0-.29,0-.58,0-.88a9.19,9.19,0,0,0-4-6c-2.7-1.87-8-4.33-20.89-3.08-7.68.75-14.29,4.65-17.42,6.79.82.12,1.64.25,2.45.44a29.81,29.81,0,0,1,3.71,1.1c2.48.89,4.85,2.07,7.25,3.16a94,94,0,0,1,13.66,7.45A30.57,30.57,0,0,1,104.54,77a15.54,15.54,0,0,1,2.35,2.51,2.68,2.68,0,0,1-.87.5,4.43,4.43,0,0,1-1.61.23c-.68,0-4.19-2.58-7.92-5.13s-7.73-5.15-9-5.84c-2.62-1.45-5.33-2.74-8-4.08l-4.74-2.37-.65-.32c-.59.41-1,.75-1.34,1a56.49,56.49,0,0,1,8,3.68c2,1.21,4,2.48,6.09,3.67s4,2.3,6,3.53a45.28,45.28,0,0,1,5.63,4.07c1.64,1.41,3.34,2.93,5.46,3.54a5.67,5.67,0,0,0,1,.18,4.08,4.08,0,0,0,2.32-.85A2.27,2.27,0,0,0,108.07,79.34ZM80,60.19a27.53,27.53,0,0,1,6.31-1.9,53.81,53.81,0,0,1,7.6-.69c2.74-.1,5.49-.21,8.23-.13a29.8,29.8,0,0,1,4.22.37,6.88,6.88,0,0,1,1.79.49c.58.27,1.1.67,1.67,1,1.07.55,2.29.71,3.26,1.46a3.9,3.9,0,0,1,1.5,2.42,3,3,0,0,1-.8,2.44,2.74,2.74,0,0,1-2.81.54,12.13,12.13,0,0,1-3.29-1.89,10.47,10.47,0,0,0-3.56-1.67c-1.26-.3-2.56-.39-3.83-.59a40.52,40.52,0,0,1-4.09-1,34,34,0,0,0-8.38-1.24A68.14,68.14,0,0,0,80,60.19Zm20,10.73q-3.45-1.9-7-3.69c-2.31-1.17-4.64-2.35-7-3.39A21.78,21.78,0,0,0,82,62.47a31.17,31.17,0,0,1,6.69,0,42.59,42.59,0,0,1,7.8,1.18,37.22,37.22,0,0,1,6.87,2.87c1.08.56,2.16,1.12,3.21,1.73a5.43,5.43,0,0,1,2.31,2.14,2.32,2.32,0,0,1-.15,2.52,3,3,0,0,1-2.24.91,6.86,6.86,0,0,1-3.19-1C102.18,72.2,101.07,71.54,99.94,70.92Z"/><path class="cls-5" d="M39.29,87a4.83,4.83,0,0,1-4-1.46,2.42,2.42,0,0,1-.43-.36,7.69,7.69,0,0,1-.83,0,8.55,8.55,0,0,1-4-1.22,7.08,7.08,0,0,1-2.48-2.59,12.24,12.24,0,0,0-1.83-3,21.9,21.9,0,0,0-2.66-2,12,12,0,0,1-2.47-2.24,11.57,11.57,0,0,1-2.4-6,9.37,9.37,0,0,1,.21-3.17A9.72,9.72,0,0,1,18,63.3a11.38,11.38,0,0,1,0-4,9.93,9.93,0,0,1,1.4-3.59c.25-.39.52-.77.79-1.15a23.49,23.49,0,0,1-.93-2.41,18.77,18.77,0,0,1-1-7.08A13.63,13.63,0,0,1,20,39.23a11.78,11.78,0,0,1,4.14-4.13c.41-.26.83-.49,1.26-.71-.72.39-6.06,6.22-4.18,11.83s11.19-2.61,15.09-5S48.4,31.89,58.84,31c0,0-14.84,5.36-23.64,13.71l-.39.36-.11.1-.29.27-.1.09-.37.33-.06.06-.31.27-.11.1-.29.25-.08.06-.35.31-.09.06a3.11,3.11,0,0,1-.28.23l-.1.09-.3.25,0,0-.34.28-.09.07-.26.2-.1.07-.33.26h0l-.31.23-.09.07-.25.18-.08.06-.32.23-.06,0-.25.18-.1.07-.24.16-.07,0-.3.2-.08,0-.22.15-.09.06-.26.17,0,0-.28.18-.08.05-.22.14-.08,0-.27.17h0l-.25.15-.08.05-.08,0h0s-5.55,4.18-5.79,8.93A38.62,38.62,0,0,1,35.2,50.5s-12.82,7.81-14,14.23c-1,5.49,4.14,6.83,5.63,7.1a16.37,16.37,0,0,1,1.89-3.46,32.09,32.09,0,0,1,3.74-4.08,76.92,76.92,0,0,1,8.55-7.15q2.55-1.83,5.24-3.47a27,27,0,0,1,5.59-2.85l-.76.7a84.56,84.56,0,0,0-10.39,7.61,32.32,32.32,0,0,0-7.57,9.53,15.14,15.14,0,0,0-1.74,5.89A6.36,6.36,0,0,0,32,77.47a3.43,3.43,0,0,0,2.27,2.12c1.33.22,2.14-1,2.89-1.83S38.69,75.94,39.5,75c1.53-1.69,3.1-3.35,4.69-5L44,70.3a64.15,64.15,0,0,1,9.34-8.23q3.9-2.85,8-5.39c2.75-1.7,5.59-3.23,8.41-4.81.4-.22-5.71,4.39-8.68,6.39a86,86,0,0,0-14.45,12,48,48,0,0,0-5.83,7.29,11.37,11.37,0,0,0-1.38,3.67,2.21,2.21,0,0,0,2.75,1,11.3,11.3,0,0,0,3.16-2.26c1-.81,2-1.61,3-2.41q6.12-4.87,12.47-9.45t12.78-8.69a76.93,76.93,0,0,1,13.1-7.06,34.43,34.43,0,0,1,13.85-2.57l.49,0h.14l.35,0,.15,0,.37,0h.12l.47,0h0l1,.15h0l.48.08h0l.49.1h0c2.88.24,6.81-.08,7.65-3.58a5.48,5.48,0,0,0-2-6.06l-.22-.14h0l-.21-.12,0,0-.18-.11,0,0-.17-.1-.06,0-.17-.09-.06,0-.16-.08-.07,0-.17-.08-.06,0-.23-.1a14.84,14.84,0,0,0-5-1.08c-.59,0-1.37,0-2.38,0h0c-.66,0-1.31,0-1.95.1l-1.28.09c-9,1.2-19,7.51-19,7.51s10.18-7.93,14-9.51.75-5.57-1.51-5.19-2.14,1.87-8.93,3.11c-4.94.91-12,4.25-15.49,6a28.75,28.75,0,0,1,7.31-4.89c4-1.74,11.8-4.31,13.26-7,.64-1.28,0-2.3-1.56-3.08a83.38,83.38,0,0,1-8.43-5.73s4.41,5.61,1.77,8.85c0,0,.7-3.74-4.24-8.23-4.4-4-12.06-6.5-18-4l-.38.16a60.69,60.69,0,0,0-9.85,6,75.08,75.08,0,0,1-9.23,5.71c-3,1.35-8.11,3.21-9.85,4a29.36,29.36,0,0,0-7.19,4.76l-.19.17a11.22,11.22,0,0,0-2.05,2.45A8.93,8.93,0,0,0,17,42.63h0l-.12.47a14.29,14.29,0,0,0,.56,7.5,26.49,26.49,0,0,0,1.76,4s.05.08.07.13A7.06,7.06,0,0,0,18.41,56a10.5,10.5,0,0,0-1.1,3.22,12,12,0,0,0,.33,5.24,1,1,0,0,0-.06.23,13.58,13.58,0,0,0-.31,3.3,9.08,9.08,0,0,0,2.27,6.15c1.5,1.59,3.6,2.47,5.06,4.1s2.18,3.87,3.72,5.51A8.54,8.54,0,0,0,35,86.36a5.21,5.21,0,0,0,2.35.81A9.14,9.14,0,0,0,40.55,87c.22-.05.44-.09.65-.15A10.37,10.37,0,0,0,43,86.16l.39-.28A11.49,11.49,0,0,1,39.29,87Zm-4.38-38c-.65.29-1.28.6-1.92.92l-1.8.9h-.05c.57-.53,1.08-1.12,1.6-1.71a45.92,45.92,0,0,1,7.59-6.88,102.38,102.38,0,0,1,8.86-5.67A46.61,46.61,0,0,1,54,34a30.54,30.54,0,0,1,5.3-1.6q5.34-1.24,10.76-2.06c-.54.42-1.08.83-1.65,1.2a18,18,0,0,1-4,2c-1.42.51-2.86,1-4.25,1.56s-2.8,1.33-4.18,2c-2.84,1.43-5.68,2.86-8.49,4.35s-5.38,3.1-8,4.72Q37.17,47.6,34.91,49.07Zm45.14-.52c2.35-1.32,4.72-2.59,7.13-3.81,1.2-.6,2.42-1.19,3.63-1.77a34,34,0,0,1,3.62-1.55,21.36,21.36,0,0,1,8-.72c2.11.11,4.57.44,6,2.1l.08.09,0,0,.21.3c.12.2.23.41.33.62a.94.94,0,0,0,.06.18c0,.12.08.23.11.35s0,.2.07.3l0,.15v.09a4.7,4.7,0,0,1,0,.65s0,.17,0,.18,0,.22-.07.33l-.09.28,0,.06,0,.1-.15.25c-.09.15,0,.06-.15.19a3.74,3.74,0,0,1-2.61.95c-1.26.06-2.52,0-3.78-.06-5.42-.11-11,0-16.16,1.86a44.26,44.26,0,0,0-7.37,3.56c-2.38,1.37-4.72,2.81-7,4.26Q64.76,61.93,58,66.79c-4.46,3.24-8.75,6.72-13.27,9.89-.54.38-1.09.75-1.64,1.12L42.8,78c.46-1.42,3.19-4.76,3.73-5.21,2.21-1.79,4.39-3.62,6.59-5.41,4.31-3.52,8.68-7,13.23-10.18S75.34,51.22,80.05,48.55ZM69,42.13a63.68,63.68,0,0,1,7.29-2.92c2.53-.83,5.09-1.53,7.61-2.38,1.26-.43,2.51-.9,3.74-1.42a18.2,18.2,0,0,1,1.7-.74,1.16,1.16,0,0,1,.71-.06c.11,0,.3.17.3.29s-.8.64-1,.77l-1.69,1.24c-1.09.78-2.18,1.56-3.29,2.3-2.32,1.56-4.74,3-7.13,4.39s-4.86,2.92-7.3,4.36l-7.32,4.32c-2.38,1.41-4.78,2.77-7.11,4.26a44,44,0,0,0-6,4.59c-1.73,1.58-3.36,3.27-5,4.95S41.16,69.43,39.38,71c-.86.76-1.75,1.48-2.68,2.17-.48.36-1,.72-1.47,1-.08.06-.19.1-.27.16l-.05-.2A5.36,5.36,0,0,1,35,72.72c.1-.6.22-1.2.37-1.79a21,21,0,0,1,1.16-3.34,22.94,22.94,0,0,1,3.92-6,53.29,53.29,0,0,1,5.65-5.17,60,60,0,0,1,6-4.56,19.47,19.47,0,0,1,3.3-1.71C55.62,50.05,64.33,44.32,69,42.13Zm6.65-10.92.45-.26a16,16,0,0,1-2.79,2.62l-.37.29c-.1-.06-7.35,4.45-10.94,6.47s-7.25,4-10.84,6A106.47,106.47,0,0,0,40.73,53a99.33,99.33,0,0,0-9.94,8.73,71.11,71.11,0,0,0-4.64,6.11,1,1,0,0,1-.36.13,1.59,1.59,0,0,1-1.42-1,3.76,3.76,0,0,1,.33-2.66A21.18,21.18,0,0,1,26,61.77a29.61,29.61,0,0,1,3.31-4.58,28,28,0,0,1,4.14-3.85,50.52,50.52,0,0,1,5.64-3.51L51.45,43c2-1.12,4-2.26,6-3.33a61.91,61.91,0,0,1,6.12-2.72A101.12,101.12,0,0,0,75.62,31.21Zm-4.8-7.89a.8.8,0,0,1-.15,1A5.82,5.82,0,0,1,68.58,26a14.25,14.25,0,0,1-6.1,1,28.57,28.57,0,0,0-6.9.69c-4.14,1.08-7.85,3.32-11.52,5.43-1.84,1.06-3.71,2.09-5.65,3a34.75,34.75,0,0,0-5.94,3.14c-1.64,1.2-3.14,2.71-5,3.51a3.25,3.25,0,0,1-2.26.22,1.17,1.17,0,0,1-.58-.42,1.47,1.47,0,0,1-.13-1.16c.41-1.76,2-3.18,3.41-4.16a42,42,0,0,1,5.37-2.89C35.47,33.2,37.71,32.11,40,31a40.09,40.09,0,0,0,6.1-3.43,50.77,50.77,0,0,0,4.53-3.89l.42-.39c.49-.38,1-.74,1.49-1.09A13,13,0,0,1,57.35,20,15.74,15.74,0,0,1,61,19.86c1.18.05,2.36.12,3.53.24a8.7,8.7,0,0,1,5.6,2.23A4.6,4.6,0,0,1,70.82,23.32Z"/><path class="cls-7" d="M94.64,101.37a.82.82,0,0,0-.29-.6h0a.87.87,0,0,0-1.22.09c-3.82,4.4-6.52,2.28-9.51-.07-2.27-1.78-4.68-3.67-7.86-3.67a7.48,7.48,0,0,0-3.09.65A6.64,6.64,0,0,0,71,98.92a6.36,6.36,0,0,0-1.72-1.14,7.51,7.51,0,0,0-3.1-.66c-3.19,0-6,1.92-8.63,3.68-.86.59-1.71,1.15-2.51,1.61-2.27,1.29-4.31,1.67-6.11-1.39a.87.87,0,0,0-1.63.3,13,13,0,0,0,.11,4.56,7.3,7.3,0,0,0,2.78,4.42,10,10,0,0,0,4.78,1.79,23.1,23.1,0,0,0,7.73-.49,20.48,20.48,0,0,0,5.42-1.92A11.26,11.26,0,0,0,71,107.52a11,11,0,0,0,2.87,2.14,20.35,20.35,0,0,0,5.42,1.92,22.84,22.84,0,0,0,7.73.49,10,10,0,0,0,4.78-1.79,7.32,7.32,0,0,0,2.78-4.42A12.78,12.78,0,0,0,94.64,101.37Z"/><path class="cls-8" d="M225.13,40.91a17.6,17.6,0,0,1,3.19,10.59q0,6.36-3.22,10.22a16.51,16.51,0,0,1-5.29,4,15.54,15.54,0,0,1,8,6.12A18.36,18.36,0,0,1,230.53,82,20.3,20.3,0,0,1,227.44,93,19.07,19.07,0,0,1,214.69,102a47.91,47.91,0,0,1-9.81.94H173.63V33.52h33.52Q219.84,33.71,225.13,40.91Zm-37.67,4.66v15.3h16.86a13.9,13.9,0,0,0,7.34-1.72q2.82-1.71,2.82-6.09c0-3.23-1.24-5.37-3.73-6.4a25.83,25.83,0,0,0-8.2-1.09Zm0,26.78v18.5h16.85a16.45,16.45,0,0,0,7-1.22q4.56-2.26,4.56-8.66,0-5.41-4.42-7.44a17.7,17.7,0,0,0-6.93-1.18Z"/><path class="cls-8" d="M275.35,52.64a20.88,20.88,0,0,1,8.87,7.59,25.12,25.12,0,0,1,4.08,10.6A65.27,65.27,0,0,1,288.74,81H251.38q.31,7.72,5.36,10.83a13.62,13.62,0,0,0,7.4,1.93,10.41,10.41,0,0,0,10.21-5.88H288q-.54,4.56-5,9.27-6.88,7.49-19.3,7.48a28,28,0,0,1-18.07-6.31q-7.83-6.31-7.83-20.54,0-13.33,7.07-20.44t18.34-7.12A29.1,29.1,0,0,1,275.35,52.64ZM255.28,64.23a14,14,0,0,0-3.57,7.94h23.11c-.25-3.56-1.44-6.27-3.57-8.11a11.8,11.8,0,0,0-8-2.77Q258.13,61.29,255.28,64.23Z"/><path class="cls-8" d="M297.55,112.74l1.7.09a21.07,21.07,0,0,0,3.76-.14,6.83,6.83,0,0,0,3-1.08,7.21,7.21,0,0,0,2.19-3.34,7.84,7.84,0,0,0,.87-3.11L290.23,51.6h14.92l11.2,37.84L326.94,51.6h14.27l-17.59,50.45q-5.1,14.6-8.07,18.1t-11.87,3.51q-1.8,0-2.88,0c-.72,0-1.8-.07-3.25-.16Z"/><path class="cls-8" d="M343.86,61.62V52.07H351V37.76h13.27V52.07h8.33v9.55h-8.33V88.73c0,2.11.27,3.42.8,3.93s2.17.78,4.9.78l1.29,0,1.34-.07v10l-6.35.24q-9.51.33-13-3.3c-1.51-1.54-2.26-3.9-2.26-7.11V61.62Z"/><path class="cls-8" d="M418.11,51.88a15.14,15.14,0,0,1,6.35,5A13.48,13.48,0,0,1,427,62.84a73.41,73.41,0,0,1,.47,9.91V102.9H413.81V71.66A13.79,13.79,0,0,0,412.4,65c-1.21-2.39-3.52-3.58-6.91-3.58s-6.19,1.18-8,3.56-2.74,5.75-2.74,10.15v27.8H381.33V33.76h13.41V58.23A16.35,16.35,0,0,1,401.47,52a18.86,18.86,0,0,1,8-1.77A21.72,21.72,0,0,1,418.11,51.88Z"/><path class="cls-8" d="M460.43,71.7a21.44,21.44,0,0,0,5.36-1.18q2.9-1.23,2.89-3.81,0-3.16-2.21-4.36a14,14,0,0,0-6.52-1.2q-4.81,0-6.82,2.36a9.77,9.77,0,0,0-1.91,4.7H438.28a19.61,19.61,0,0,1,3.78-11.06q5.34-6.78,18.34-6.78a32.67,32.67,0,0,1,15,3.35Q482,57.05,482,66.33V89.86c0,1.64,0,3.61.1,5.93a7.41,7.41,0,0,0,.8,3.58,4.73,4.73,0,0,0,2,1.55v2H470.29a14.46,14.46,0,0,1-.85-2.92c-.16-.91-.28-1.94-.38-3.1a28.09,28.09,0,0,1-6.44,5.13,19.45,19.45,0,0,1-9.84,2.49,17,17,0,0,1-11.58-4q-4.57-4-4.57-11.27,0-9.47,7.35-13.7,4-2.3,11.86-3.29ZM468.64,78a15.32,15.32,0,0,1-2.6,1.29,22.89,22.89,0,0,1-3.61.92l-3.05.56a19.94,19.94,0,0,0-6.16,1.84,6.11,6.11,0,0,0-3.17,5.69q0,3.43,1.93,5a7.36,7.36,0,0,0,4.71,1.53,14.05,14.05,0,0,0,8.1-2.54q3.7-2.55,3.85-9.28Z"/><path class="cls-8" d="M493.58,33.76h13.18V71.19l16.92-19.36h16.68L522,71l19.1,32H524.75L512.32,81l-5.56,5.78V102.9H493.58Z"/></g></g></svg>