<svg xmlns="http://www.w3.org/2000/svg" xmlns:xlink="http://www.w3.org/1999/xlink" width="273.385" height="273.385" viewBox="0 0 273.385 273.385">
  <defs>
    <style>
      .cls-1 {
        fill: url(#linear-gradient);
      }

      .cls-2 {
        opacity: 0.37;
      }

      .cls-3 {
        fill: #ffd41f;
      }

      .cls-4 {
        fill: #ffc41d;
      }

      .cls-5 {
        fill: #e29c00;
      }

      .cls-6 {
        fill: #f4ae00;
      }
    </style>
    <linearGradient id="linear-gradient" x1="0.477" y1="-1.243" x2="0.506" y2="0.977" gradientUnits="objectBoundingBox">
      <stop offset="0" stop-color="#fff"/>
      <stop offset="1"/>
    </linearGradient>
  </defs>
  <g id="Group_928" data-name="Group 928" transform="translate(-381.612 -297.119)">
    <rect id="Rectangle_288" data-name="Rectangle 288" class="cls-1" width="273.385" height="273.385" rx="136.692" transform="translate(381.612 297.119)"/>
    <g id="Group_835" data-name="Group 835" transform="translate(428.007 346.242)">
      <g id="Group_830" data-name="Group 830" class="cls-2" transform="translate(1.962 4.261)">
        <g id="Group_827" data-name="Group 827">
          <path id="Path_587" data-name="Path 587" d="M583.419,408.092a24.315,24.315,0,0,0,3.364-17.1,23.436,23.436,0,0,0-3.529-8.775,25.308,25.308,0,0,0-6.605-6.787,24.109,24.109,0,0,0-4.2-2.34,26.974,26.974,0,0,0-4.527-1.452c-3.072-.709-5.934-.908-8.324-1.646-.3-.089-.591-.182-.874-.286a7.092,7.092,0,0,1-.748-.31,6.475,6.475,0,0,1-1.287-.815,18.14,18.14,0,0,1-2.371-2.842,18.021,18.021,0,0,0-1.653-1.907,17.009,17.009,0,0,0-1.968-1.675A17.292,17.292,0,0,0,548,360.568a9.122,9.122,0,0,0-.464-1.847,8.929,8.929,0,0,0-2.2-3.361,16.686,16.686,0,0,0-5.787-3.269c-.889-.345-1.739-.661-2.536-.989q-.6-.245-1.153-.5l-1.187-.617c-1.582-.833-3.171-1.618-4.747-2.486-6.294-3.5-12.564-7.855-20-10.626a44.7,44.7,0,0,0-5.7-1.716l-2.786-.607c-.978-.2-1.968-.361-2.967-.484a33.792,33.792,0,0,0-12.135.616,33.449,33.449,0,0,0-5.777,2q-.695.314-1.372.655c-.446.222-.8.428-1.179.592-.893.426-1.754.869-2.6,1.323a111.562,111.562,0,0,0-9.744,5.958c-1.564,1.053-3.115,2.172-4.617,3.261q-2.191,1.6-4.45,3.1c-3.01,2-6.108,3.883-9.265,5.608l-1.113.6-1.151.521-2.5,1.083-5.1,2.11-5.171,2.14c-.875.377-1.744.746-2.684,1.211q-1.3.65-2.567,1.356a50.09,50.09,0,0,0-9.558,6.774l-1.057.984q-.569.545-1.1,1.125a21.518,21.518,0,0,0-1.941,2.468,19.7,19.7,0,0,0-2.758,5.731,23.92,23.92,0,0,0-.853,6.126,27.61,27.61,0,0,0,.657,6.043,39.1,39.1,0,0,0,3.693,9.662,16.8,16.8,0,0,0-1.612,3.106,19.72,19.72,0,0,0-1.212,4.718,22.6,22.6,0,0,0,.694,8.992l-.077.41-.138.875q-.122.876-.183,1.753a26.466,26.466,0,0,0-.011,3.508,19.028,19.028,0,0,0,1.7,6.925,15.126,15.126,0,0,0,4.535,5.558c1.842,1.424,3.753,2.487,5.363,3.758a16.058,16.058,0,0,1,3.95,4.666,35.065,35.065,0,0,0,3.8,5.532,14.886,14.886,0,0,0,12.242,4.676,7.39,7.39,0,0,0,2.467.969,15.048,15.048,0,0,0,2.722.314,15.893,15.893,0,0,0,5.335-.808q-.633.153-1.275.256a15.315,15.315,0,0,1-5.361.226,8.74,8.74,0,0,1-3.964-1.384,14.331,14.331,0,0,1-11.335-4.4c-2.6-2.785-3.786-6.535-6.285-9.377-2.454-2.788-6.013-4.276-8.538-7a15.6,15.6,0,0,1-3.841-10.482,24.22,24.22,0,0,1,.523-5.62c.028-.129.063-.259.1-.388a20.665,20.665,0,0,1-.551-8.937,17.68,17.68,0,0,1,1.859-5.48,11.5,11.5,0,0,1,1.5-2.175c-.04-.073-.08-.146-.119-.221a45.4,45.4,0,0,1-2.982-6.854,24.42,24.42,0,0,1-.933-12.765c.059-.269.126-.536.2-.8l0-.018a15.018,15.018,0,0,1,2.085-4.747,19.992,19.992,0,0,1,3.466-4.18c.1-.1.212-.188.317-.283a49.517,49.517,0,0,1,12.139-8.1c2.935-1.43,11.56-4.589,16.634-6.9a125.567,125.567,0,0,0,15.592-9.733,101.613,101.613,0,0,1,16.63-10.181,30.222,30.222,0,0,1,10.668-3.42,33.8,33.8,0,0,1,12.091.838,39.3,39.3,0,0,1,4.332,1.1c8.011,2.507,14.922,7.4,22.214,11.4,1.825,1,3.675,1.963,5.57,2.822,1.74.788,3.554,1.364,5.317,2.092a8.54,8.54,0,0,1,4.622,3.632,5.947,5.947,0,0,1,.675,3.45,14.336,14.336,0,0,1,6.207,4.1c1.061,1.214,1.914,2.606,3.084,3.724a9.169,9.169,0,0,0,3.146,1.891,38.75,38.75,0,0,0,7.332,1.5,26.8,26.8,0,0,1,7.243,2.017,22.652,22.652,0,0,1,10.505,10.114,21.7,21.7,0,0,1,1.827,14.7,22.761,22.761,0,0,1-2.874,7.02c-.1.153-.192.3-.291.456.025.047.052.092.077.139a30.714,30.714,0,0,1,1.825,4.168,27.663,27.663,0,0,1,.982,15.672,10.849,10.849,0,0,1-4.338,6.519,7.3,7.3,0,0,1-2.114.97,1.661,1.661,0,0,1-.163.467c-1.825,3.515-4.7,6.849-8.63,7.924a8.968,8.968,0,0,1-.081,5.384,7.427,7.427,0,0,1-6.03,4.831c-.251.047-.5.09-.76.118a8.9,8.9,0,0,0,3.547-.824,7.387,7.387,0,0,0,2.855-2.36,8.008,8.008,0,0,0,1.392-3.5,9.742,9.742,0,0,0-.108-3.252,12.812,12.812,0,0,0,5.189-3.1,18.443,18.443,0,0,0,2.153-2.469c.325-.438.629-.892.915-1.354.147-.23.284-.464.419-.7a2.277,2.277,0,0,0,.2-.392,10.356,10.356,0,0,0,5.9-5.31,16.025,16.025,0,0,0,1.352-3.948,25.679,25.679,0,0,0,.55-4.044,29.919,29.919,0,0,0-.66-8.094A32.114,32.114,0,0,0,583.419,408.092Z" transform="translate(-409.788 -333.785)"/>
          <path id="Path_588" data-name="Path 588" d="M485.562,375.7c2.334-1.218,5.611-2.927,9.225-4.806A94.471,94.471,0,0,0,485.562,375.7Z" transform="translate(-398.47 -328.242)"/>
          <path id="Path_589" data-name="Path 589" d="M532.178,406.12a65.387,65.387,0,0,0,6.91,1.655c2.153.345,4.339.5,6.463,1.016a17.739,17.739,0,0,1,6.02,2.835,20.088,20.088,0,0,0,5.547,3.219,4.569,4.569,0,0,0,4.746-.916,5.118,5.118,0,0,0,1.354-4.148,6.569,6.569,0,0,0-2.535-4.125c-1.626-1.287-3.7-1.563-5.5-2.5-.965-.5-1.829-1.184-2.815-1.645a11.748,11.748,0,0,0-3.016-.837,51.957,51.957,0,0,0-7.127-.63c-4.63-.139-9.273.06-13.9.218a90.573,90.573,0,0,0-12.835,1.187,46.809,46.809,0,0,0-10.652,3.223,116.126,116.126,0,0,1,13.2-.66A57.332,57.332,0,0,1,532.178,406.12Z" transform="translate(-395.591 -323.895)"/>
          <path id="Path_590" data-name="Path 590" d="M552.948,425.295a3.975,3.975,0,0,0,.246-4.294,9.16,9.16,0,0,0-3.891-3.638c-1.771-1.044-3.605-2-5.429-2.948a62.15,62.15,0,0,0-11.588-4.893,71.132,71.132,0,0,0-13.173-2.015,52.254,52.254,0,0,0-11.3-.013,36.682,36.682,0,0,1,6.645,2.334c4.027,1.767,7.955,3.774,11.866,5.78q5.926,3.04,11.744,6.279c1.909,1.063,3.791,2.18,5.711,3.222a11.523,11.523,0,0,0,5.382,1.744A5.048,5.048,0,0,0,552.948,425.295Z" transform="translate(-395.146 -322.821)"/>
          <path id="Path_591" data-name="Path 591" d="M467.641,395.51a99.959,99.959,0,0,0-10.091,7.779,89.743,89.743,0,0,0-9.542,8.816,39.018,39.018,0,0,0-6.614,10.256,36.794,36.794,0,0,0-1.96,5.681c-.259,1-.455,2.026-.621,3.049a8.652,8.652,0,0,0-.2,2.465c.011.085.054.194.087.333a4.882,4.882,0,0,1,.445-.263c.856-.551,1.68-1.16,2.493-1.773q2.336-1.765,4.527-3.708c3-2.657,5.828-5.5,8.619-8.371,2.769-2.848,5.514-5.729,8.436-8.421a74.639,74.639,0,0,1,10.156-7.828c3.928-2.532,7.99-4.863,12.006-7.256q6.181-3.681,12.358-7.367t12.326-7.423c4.041-2.448,8.121-4.83,12.033-7.484,1.879-1.275,3.727-2.594,5.562-3.933q1.427-1.041,2.848-2.1c.3-.225,1.672-1.013,1.662-1.315-.007-.207-.33-.433-.5-.494a1.974,1.974,0,0,0-1.207.1,29.386,29.386,0,0,0-2.864,1.253c-2.073.9-4.191,1.692-6.328,2.423-4.247,1.453-8.575,2.648-12.835,4.058a105.788,105.788,0,0,0-12.319,4.978c-7.826,3.738-22.546,13.5-22.9,13.641A32.544,32.544,0,0,0,467.641,395.51Z" transform="translate(-405.487 -328.959)"/>
          <path id="Path_592" data-name="Path 592" d="M479.014,375.489c-3.417,1.825-6.77,3.775-10.144,5.677q-10.4,5.864-20.808,11.726a84.433,84.433,0,0,0-9.525,5.986,47.364,47.364,0,0,0-7,6.564,50.532,50.532,0,0,0-5.592,7.805,37.019,37.019,0,0,0-2.233,4.33c-.566,1.353-1.116,3.117-.557,4.532a2.693,2.693,0,0,0,2.4,1.715,1.508,1.508,0,0,0,.6-.23c.193-.131,5.356-7.961,7.843-10.4a166.2,166.2,0,0,1,16.78-14.876A181.016,181.016,0,0,1,468.338,387c6.054-3.515,12.216-6.837,18.3-10.294,6.065-3.446,18.3-11.127,18.467-11.018.21-.168.422-.334.631-.5a27.209,27.209,0,0,0,4.7-4.463c-.254.146-.507.293-.762.438a170.22,170.22,0,0,1-20.347,9.706A105.669,105.669,0,0,0,479.014,375.489Z" transform="translate(-407.826 -329.762)"/>
          <path id="Path_593" data-name="Path 593" d="M484.933,344.284a26.111,26.111,0,0,0-6.13.308A21.77,21.77,0,0,0,470.6,348.3c-.861.592-1.693,1.217-2.513,1.861q-.359.331-.714.662a85.566,85.566,0,0,1-7.647,6.635,68.5,68.5,0,0,1-10.31,5.84q-5.669,2.782-11.321,5.6a73.5,73.5,0,0,0-9.07,4.924c-2.422,1.676-5.069,4.1-5.757,7.091a2.531,2.531,0,0,0,.224,1.987,1.987,1.987,0,0,0,.974.711,5.507,5.507,0,0,0,3.824-.374c3.2-1.365,5.73-3.945,8.5-5.978a57.832,57.832,0,0,1,10.04-5.36c3.272-1.526,6.418-3.286,9.54-5.1,6.2-3.594,12.453-7.412,19.446-9.247a47.245,47.245,0,0,1,11.651-1.174c3.468-.036,7.111-.139,10.29-1.7a9.671,9.671,0,0,0,3.53-2.756c.494-.655.626-1.009.256-1.752a7.166,7.166,0,0,0-1.2-1.693c-2.434-2.583-6.035-3.451-9.445-3.8C488.915,344.485,486.92,344.367,484.933,344.284Z" transform="translate(-407.79 -332.224)"/>
          <path id="Path_594" data-name="Path 594" d="M460.7,378.766c4.745-2.541,9.551-4.969,14.348-7.412,2.332-1.188,4.654-2.4,7.054-3.45,2.347-1.023,4.775-1.8,7.181-2.67a30.859,30.859,0,0,0,6.725-3.311c.961-.639,1.884-1.329,2.785-2.047q-9.146,1.379-18.157,3.506a51.214,51.214,0,0,0-8.961,2.733,79.549,79.549,0,0,0-8.126,4.418,175.963,175.963,0,0,0-14.975,9.671,78.3,78.3,0,0,0-12.813,11.729c-.868,1-1.74,2-2.694,2.914l.079-.014q1.522-.778,3.048-1.549c1.069-.541,2.146-1.062,3.234-1.554q3.817-2.519,7.716-4.912C451.622,384.05,456.06,381.252,460.7,378.766Z" transform="translate(-406.31 -329.888)"/>
          <path id="Path_595" data-name="Path 595" d="M467.628,420.717c-3.723,3.064-7.405,6.177-11.135,9.233-.917.752-5.515,6.447-6.3,8.87.21-.149.4-.294.56-.4q1.4-.945,2.776-1.918c7.631-5.392,14.865-11.321,22.4-16.845q11.334-8.31,23.247-15.788c3.937-2.477,7.9-4.922,11.916-7.263a75.657,75.657,0,0,1,12.447-6.071c8.714-3.124,18.122-3.347,27.277-3.16,2.121.044,4.26.2,6.38.094a6.27,6.27,0,0,0,4.414-1.61.867.867,0,0,0,.255-.325c.086-.139.168-.28.249-.423.03-.054.056-.111.083-.168.017-.039.043-.1.048-.114.055-.154.1-.31.147-.469a5.537,5.537,0,0,0,.121-.568c0-.023.021-.253.024-.306a7.318,7.318,0,0,0-.028-1.1.238.238,0,0,1,0-.055c0-.017-.009-.049-.02-.108-.016-.086-.032-.171-.049-.256-.036-.171-.076-.34-.122-.509-.054-.2-.114-.393-.182-.587-.015-.042-.115-.307-.112-.306a8.163,8.163,0,0,0-.557-1.061c-.108-.176-.223-.348-.344-.515l-.047-.067c-.044-.054-.087-.108-.132-.161-2.416-2.816-6.57-3.392-10.125-3.565-4.512-.221-9.128-.267-13.448,1.218a58.519,58.519,0,0,0-6.1,2.649q-3.086,1.471-6.134,3.018-6.1,3.095-12.035,6.492-11.925,6.819-23.135,14.8C482.284,408.848,474.908,414.727,467.628,420.717Z" transform="translate(-403.753 -327.617)"/>
          <path id="Path_596" data-name="Path 596" d="M505.3,412.062c4.522,2.28,9.106,4.471,13.523,6.95,2.106,1.182,8.828,5.573,15.163,9.947,6.3,4.353,12.223,8.689,13.367,8.742a7.27,7.27,0,0,0,2.726-.379,4.7,4.7,0,0,0,1.467-.855,27.348,27.348,0,0,0-3.962-4.28A52.586,52.586,0,0,0,542.159,428a159.506,159.506,0,0,0-23.077-12.689c-4.04-1.864-8.041-3.876-12.229-5.392a53.285,53.285,0,0,0-6.277-1.877c-1.368-.312-2.747-.54-4.131-.746l-.251.175c.369.184.733.368,1.091.548Z" transform="translate(-396.881 -322.805)"/>
          <path id="Path_597" data-name="Path 597" d="M562.726,448.657a8.969,8.969,0,0,0,.081-5.384c3.933-1.075,6.805-4.409,8.631-7.924a1.667,1.667,0,0,0,.163-.467,7.3,7.3,0,0,0,2.114-.97,10.85,10.85,0,0,0,4.338-6.519,27.664,27.664,0,0,0-.982-15.672,30.7,30.7,0,0,0-1.825-4.167c-.025-.047-.052-.092-.077-.139q.148-.228.291-.456a22.766,22.766,0,0,0,2.873-7.02,21.7,21.7,0,0,0-1.828-14.7A22.652,22.652,0,0,0,566,375.127a26.81,26.81,0,0,0-7.243-2.017,38.754,38.754,0,0,1-7.332-1.5,9.168,9.168,0,0,1-3.146-1.891c-1.17-1.118-2.023-2.51-3.084-3.724a14.337,14.337,0,0,0-6.207-4.1,5.946,5.946,0,0,0-.675-3.451,8.54,8.54,0,0,0-4.622-3.632c-1.763-.727-3.577-1.3-5.317-2.092-1.9-.859-3.745-1.822-5.57-2.822-7.292-4-14.2-8.889-22.214-11.4a39.289,39.289,0,0,0-4.332-1.1,50.859,50.859,0,0,1,10.048,3.679,82.366,82.366,0,0,1,9.572,5.545c3.11,2.053,6.058,4.53,9.467,6.079.837.38,1.7.7,2.562,1.021h0c5.289,2.485,6.655,6.123,4.737,6.8s-4.737,3.672-4.737,3.672c4.754-2.44,11.18-.5,11.18-.5,5.933,2.938,5.526,8.642,3.067,8.489s-5.554,3.71-5.554,3.71c6.926-2.283,17.608-1.553,17.608-1.553a27.77,27.77,0,0,1,7.762,1.427,20.185,20.185,0,0,1,5.746,3.479,17.264,17.264,0,0,1,4.834,8.388,12.985,12.985,0,0,1-1.041,8.91,10.552,10.552,0,0,1-6.886,5.523,10.737,10.737,0,0,1-5.434-.408,36.646,36.646,0,0,0-5.245-1.318,42.765,42.765,0,0,0-10.524.069l-.788.083h0s-20.914-1.554-52.817,23.693c-1.348,1.067-2.481,1.954-3.681,2.9-2.078,1.645-4.36,3.481-8.3,6.771-1.869,1.56-4.111,3.443-6.884,5.789-3.755,3.178-7.158,7.543-10.063,10.16-4.839,4.363-8.288,6.985-9.671,7.995-.415.3-.644.462-.667.478l-.006,0a67.877,67.877,0,0,0,12.019-7.811c1.331-1.059,11.556-9.919,21.207-17.739,5.566-4.509,11.008-8.657,13.967-10.883a39.773,39.773,0,0,1,3.862,1.01,52.038,52.038,0,0,1,8.231,3.433c5.456,2.777,10.776,5.848,15.969,9.1q7.75,4.848,15.092,10.32c2.4,1.787,4.686,3.761,7.174,5.415a12.673,12.673,0,0,0,7.7,2.468c.317-.021.629-.068.938-.118A7.427,7.427,0,0,0,562.726,448.657Zm-7.66,2.753a9.644,9.644,0,0,1-1.677-.321c-3.592-1.027-6.464-3.631-9.225-6.018a76.946,76.946,0,0,0-9.5-6.941c-3.338-2.093-6.776-4.017-10.173-6.01-3.461-2.032-6.835-4.2-10.28-6.262a95.371,95.371,0,0,0-13.467-6.278c.509-.393,1.277-.969,2.273-1.665l.25-.175c5.278-3.65,16.444-10.286,29.407-11.562,21.8-2.144,30.725,2.063,35.276,5.237,3.919,2.733,6.451,6.941,6.773,10.206.01.5.006,1-.018,1.5-.112.778-.1.675,0,.056a15.84,15.84,0,0,1-1.078,5.156,3.9,3.9,0,0,1-2.385,2.455c-1.363.37-2.508-.377-3.487-1.241a37.435,37.435,0,0,0-6.231-4.55q-1.684-.964-3.445-1.77a26.183,26.183,0,0,1,6.741,5.842c1.124,1.416,2.2,3.1,1.893,4.994-.293,1.791-1.975,3.03-3.366,4.006a8.739,8.739,0,0,1-5.048,1.687,10.883,10.883,0,0,1-4.232-.978q2.229,2.048,4.277,4.28a6.641,6.641,0,0,1,2.009,3.609,3.851,3.851,0,0,1-1.367,3.292A6.763,6.763,0,0,1,555.066,451.409Z" transform="translate(-403.701 -333.245)"/>
          <path id="Path_598" data-name="Path 598" d="M509.993,346.616c8.343,7.646,7.158,14.016,7.158,14.016,4.459-5.521-2.974-15.077-2.974-15.077s9.343,7.22,14.228,9.768c2.553,1.331,3.711,3.07,2.631,5.243-2.466,4.608-15.584,8.985-22.381,11.957a48.284,48.284,0,0,0-12.344,8.32,94.429,94.429,0,0,1,9.225-4.805c-3.614,1.878-6.891,3.587-9.225,4.805,5.894-3,17.814-8.688,26.148-10.232,11.467-2.123,11.255-4.671,15.077-5.309s8.919,6.158,2.548,8.851-23.573,16.207-23.573,16.207,16.884-10.757,32.14-12.805l2.154-.153c1.086-.077,2.185-.14,3.288-.175h0c1.716.041,3.036.053,4.025.039a24.808,24.808,0,0,1,8.466,1.837c.13.056.259.114.388.172l.1.048.285.135.11.055.279.139.1.053.286.153.089.048c.1.055.2.11.3.168l.071.041c.107.061.213.124.318.187l.052.031c.114.069.226.14.339.211l.026.017c.123.078.244.159.364.239,2.251,1.717,4.692,4.907,3.412,10.327-1.409,5.968-8.058,6.5-12.921,6.094h0c-.277-.059-.556-.115-.836-.169l-.075-.014c-.267-.05-.532-.1-.8-.142l-.061-.01q-.866-.145-1.739-.252l-.028,0c-.262-.032-.524-.061-.787-.087l-.21-.021c-.2-.02-.41-.038-.615-.055l-.257-.021c-.2-.015-.4-.029-.6-.041l-.243-.015c-.275-.015-.551-.029-.825-.039a57.57,57.57,0,0,0-23.377,4.388c-7.817,3.1-15.07,7.479-22.117,12.027q-11,7.1-21.59,14.807-10.724,7.786-21.043,16.109-2.527,2.04-5.03,4.109c-1.63,1.348-3.281,3.141-5.322,3.841a3.736,3.736,0,0,1-4.658-1.684c-.215-.439,1.338-4.686,2.331-6.255a82.865,82.865,0,0,1,9.844-12.426,146.168,146.168,0,0,1,24.4-20.4c5.011-3.4,15.324-11.265,14.662-10.889-4.76,2.694-9.569,5.308-14.212,8.2s-9.145,5.955-13.542,9.2A107.844,107.844,0,0,0,457.712,431.4c.1-.148.2-.3.3-.445-2.683,2.8-5.346,5.627-7.927,8.523-1.359,1.523-2.693,3.069-4.017,4.622-1.268,1.486-2.639,3.507-4.881,3.13-1.793-.3-3.142-2.042-3.838-3.618a11.1,11.1,0,0,1-.91-4.976,26.093,26.093,0,0,1,2.94-10.034c3.026-6.281,7.694-11.557,12.78-16.251,5.211-4.81,17.359-13.144,17.544-12.96q.636-.605,1.3-1.19a44.571,44.571,0,0,0-9.437,4.848q-4.54,2.788-8.854,5.922a130.476,130.476,0,0,0-14.441,12.179,53.609,53.609,0,0,0-6.3,6.954,27.19,27.19,0,0,0-3.192,5.9c-2.519-.462-11.155-2.742-9.512-12.106,1.918-10.936,23.564-24.242,23.564-24.242a65.372,65.372,0,0,0-24.208,16.491c.4-8.093,9.774-15.211,9.774-15.211h0l.142-.086.135-.082c.139-.084.278-.169.419-.256l.045-.028.468-.29.13-.082.364-.231.135-.086.484-.31.056-.037.439-.287.148-.1.389-.259.128-.085.506-.345.11-.076.415-.289.159-.112c.144-.1.287-.2.432-.306l.1-.072q.264-.19.531-.384c.047-.034.1-.069.142-.1l.416-.307.162-.121c.174-.13.349-.261.525-.4l.03-.022c.185-.141.372-.285.56-.431l.162-.126q.216-.167.432-.34c.054-.041.107-.084.16-.125.191-.153.383-.306.577-.463l.078-.063.511-.42.176-.146q.233-.193.468-.392l.14-.117c.2-.169.4-.34.6-.514l.133-.117q.243-.21.489-.425l.184-.162c.175-.154.349-.31.526-.469l.1-.092c.208-.186.416-.377.626-.57l.169-.155.49-.454.186-.175c.215-.2.431-.406.648-.615,14.866-14.228,39.923-23.36,39.923-23.36-17.625,1.487-31.428,13.379-38.012,17.414s-22.3,18.05-25.476,8.494,5.838-19.5,7.056-20.159c-.724.372-1.436.769-2.129,1.2a20.064,20.064,0,0,0-6.985,7.043,23.384,23.384,0,0,0-2.842,9.965,32.577,32.577,0,0,0,1.683,12.073,41.049,41.049,0,0,0,1.571,4.1c-.443.653-.9,1.3-1.327,1.96a17.181,17.181,0,0,0-2.372,6.111,19.724,19.724,0,0,0-.05,6.815,17.423,17.423,0,0,0,.663,2.739,16.494,16.494,0,0,0-.355,5.408,19.756,19.756,0,0,0,4.064,10.269,19.983,19.983,0,0,0,4.165,3.822,35.774,35.774,0,0,1,4.484,3.446c1.475,1.47,2.113,3.356,3.088,5.148a12.058,12.058,0,0,0,4.194,4.4,14.418,14.418,0,0,0,6.753,2.093,12.092,12.092,0,0,0,1.411.01,4.469,4.469,0,0,0,.721.615,8.109,8.109,0,0,0,6.678,2.486,19.224,19.224,0,0,0,7-1.956c1.383-1.01,4.832-3.632,9.671-8,2.9-2.617,6.308-6.982,10.063-10.161,2.772-2.346,5.015-4.23,6.884-5.789,1.46-1.306,2.924-2.572,4.372-3.762,1.324-1.089,2.644-2.091,3.932-3.009,1.2-.95,2.333-1.838,3.682-2.9,31.9-25.247,52.817-23.693,52.817-23.693h0l.789-.083a42.766,42.766,0,0,1,10.524-.069,36.685,36.685,0,0,1,5.245,1.318,10.736,10.736,0,0,0,5.434.408,10.551,10.551,0,0,0,6.886-5.523,12.984,12.984,0,0,0,1.041-8.91,17.263,17.263,0,0,0-4.834-8.388,20.184,20.184,0,0,0-5.746-3.479,27.773,27.773,0,0,0-7.762-1.427s-10.682-.73-17.608,1.553c0,0,3.1-3.862,5.554-3.71s2.866-5.551-3.067-8.489c0,0-6.426-1.942-11.18.5,0,0,2.818-2.993,4.737-3.672s.553-4.317-4.737-6.8h0c-.862-.319-1.725-.64-2.562-1.021-3.409-1.549-6.357-4.026-9.467-6.079a82.4,82.4,0,0,0-9.572-5.545,50.859,50.859,0,0,0-10.048-3.679,33.8,33.8,0,0,0-12.091-.838,30.218,30.218,0,0,0-10.668,3.42c.415-.19.63-.278.63-.278C489.639,335.543,502.575,339.821,509.993,346.616Z" transform="translate(-409.22 -333.382)"/>
          <path id="Path_599" data-name="Path 599" d="M553.822,437.8a6.64,6.64,0,0,0-2.009-3.609q-2.041-2.232-4.277-4.28a10.883,10.883,0,0,0,4.232.978,8.741,8.741,0,0,0,5.048-1.687c1.392-.976,3.073-2.215,3.366-4.006.308-1.892-.769-3.578-1.893-4.994a26.182,26.182,0,0,0-6.741-5.842q1.759.805,3.444,1.77a37.449,37.449,0,0,1,6.231,4.55c.979.864,2.124,1.611,3.487,1.241a3.9,3.9,0,0,0,2.385-2.455,15.843,15.843,0,0,0,1.078-5.156c-.091.618-.107.722,0-.056.024-.5.029-1,.018-1.5-.322-3.265-2.854-7.473-6.773-10.206-4.552-3.173-13.475-7.38-35.276-5.236-12.963,1.276-24.129,7.911-29.407,11.562,1.384.206,2.763.435,4.131.746a53.292,53.292,0,0,1,6.277,1.877c4.188,1.516,8.189,3.527,12.229,5.392a159.512,159.512,0,0,1,23.077,12.689,52.587,52.587,0,0,1,5.422,4.184,27.356,27.356,0,0,1,3.962,4.28,4.7,4.7,0,0,1-1.467.855,7.271,7.271,0,0,1-2.726.379c-1.144-.053-7.063-4.389-13.367-8.742-6.334-4.373-13.057-8.765-15.162-9.947-4.417-2.479-9-4.67-13.523-6.95l-8.011-4.04c-.358-.18-.722-.364-1.091-.548-1,.7-1.764,1.272-2.273,1.665A95.369,95.369,0,0,1,507.684,417c3.445,2.06,6.819,4.23,10.28,6.262,3.4,1.993,6.835,3.917,10.173,6.01a76.942,76.942,0,0,1,9.5,6.941c2.761,2.387,5.633,4.991,9.225,6.018a9.649,9.649,0,0,0,1.677.321,6.762,6.762,0,0,0,3.913-1.453A3.851,3.851,0,0,0,553.822,437.8Zm-47.4-32.643a46.814,46.814,0,0,1,10.652-3.223,90.6,90.6,0,0,1,12.835-1.187c4.628-.159,9.271-.357,13.9-.218a51.962,51.962,0,0,1,7.127.63,11.745,11.745,0,0,1,3.016.837c.986.461,1.849,1.144,2.815,1.645,1.8.939,3.878,1.215,5.5,2.5a6.569,6.569,0,0,1,2.535,4.125,5.118,5.118,0,0,1-1.354,4.148,4.569,4.569,0,0,1-4.746.916,20.094,20.094,0,0,1-5.547-3.219,17.736,17.736,0,0,0-6.02-2.835c-2.124-.512-4.31-.671-6.463-1.016a65.333,65.333,0,0,1-6.91-1.655,57.333,57.333,0,0,0-14.149-2.108A116.131,116.131,0,0,0,506.418,405.159ZM540.1,423.45q-5.819-3.239-11.744-6.279c-3.911-2.006-7.839-4.014-11.866-5.78a36.687,36.687,0,0,0-6.645-2.334,52.268,52.268,0,0,1,11.3.013,71.134,71.134,0,0,1,13.173,2.015,62.157,62.157,0,0,1,11.588,4.893c1.823.951,3.657,1.9,5.428,2.948a9.16,9.16,0,0,1,3.891,3.638,3.974,3.974,0,0,1-.246,4.294,5.047,5.047,0,0,1-3.787,1.559,11.521,11.521,0,0,1-5.382-1.744C543.888,425.631,542.007,424.513,540.1,423.45Z" transform="translate(-397.177 -324.383)"/>
          <path id="Path_600" data-name="Path 600" d="M450,459.7a8.109,8.109,0,0,1-6.678-2.486,4.462,4.462,0,0,1-.721-.615,12.041,12.041,0,0,1-1.411-.01,14.418,14.418,0,0,1-6.753-2.093,12.058,12.058,0,0,1-4.194-4.4c-.976-1.792-1.614-3.678-3.088-5.148a35.787,35.787,0,0,0-4.484-3.446,19.977,19.977,0,0,1-4.165-3.822,19.755,19.755,0,0,1-4.064-10.268A16.493,16.493,0,0,1,414.8,422a17.42,17.42,0,0,1-.663-2.739,19.724,19.724,0,0,1,.05-6.815,17.18,17.18,0,0,1,2.372-6.111c.429-.663.885-1.307,1.327-1.96a41.072,41.072,0,0,1-1.571-4.1,32.578,32.578,0,0,1-1.683-12.073,23.385,23.385,0,0,1,2.842-9.965,20.064,20.064,0,0,1,6.985-7.043c.693-.43,1.4-.826,2.129-1.2-1.218.661-10.234,10.6-7.056,20.159s18.893-4.46,25.476-8.494,20.386-15.927,38.012-17.414c0,0-25.057,9.132-39.923,23.36-.217.209-.433.413-.648.615l-.186.175-.49.454-.169.155c-.21.193-.418.384-.626.57l-.1.092c-.177.159-.352.315-.526.469l-.184.162q-.245.215-.489.425l-.133.117c-.2.174-.4.345-.6.514l-.14.117q-.234.2-.468.392l-.176.146-.512.42-.078.063c-.194.158-.386.31-.577.463l-.16.125q-.217.172-.432.34l-.162.127c-.187.146-.375.29-.56.431l-.03.022c-.176.135-.352.266-.525.4l-.162.121-.416.307c-.047.036-.1.07-.142.1q-.267.195-.531.384l-.1.072q-.217.155-.432.306l-.159.111-.415.289-.11.076-.506.345-.128.085-.389.259-.148.1-.439.287-.056.037c-.162.1-.323.208-.484.31l-.136.086L430,397.9l-.13.082-.468.29-.045.028c-.141.087-.28.172-.419.256l-.135.082-.142.086h0s-9.37,7.118-9.774,15.211A65.371,65.371,0,0,1,443.1,397.443s-21.646,13.306-23.564,24.242c-1.642,9.364,6.993,11.644,9.512,12.106a27.2,27.2,0,0,1,3.192-5.9,53.614,53.614,0,0,1,6.3-6.954,130.486,130.486,0,0,1,14.441-12.179q4.312-3.129,8.854-5.922a44.57,44.57,0,0,1,9.438-4.848q-.659.584-1.3,1.19c-.185-.184-12.333,8.15-17.544,12.96-5.086,4.694-9.754,9.97-12.78,16.251a26.091,26.091,0,0,0-2.94,10.034,11.1,11.1,0,0,0,.91,4.976c.7,1.576,2.045,3.317,3.838,3.618,2.242.377,3.614-1.643,4.881-3.13,1.324-1.553,2.658-3.1,4.017-4.622,2.582-2.9,5.245-5.722,7.927-8.523-.1.148-.2.3-.3.445a107.851,107.851,0,0,1,15.759-14.023q6.6-4.865,13.542-9.2c4.643-2.892,9.453-5.506,14.212-8.2.662-.376-9.651,7.485-14.662,10.889a146.162,146.162,0,0,0-24.4,20.4,82.869,82.869,0,0,0-9.844,12.426c-.993,1.569-2.546,5.816-2.331,6.255a3.736,3.736,0,0,0,4.658,1.684c2.04-.7,3.692-2.493,5.322-3.841q2.5-2.069,5.03-4.109,10.313-8.322,21.043-16.11,10.6-7.691,21.59-14.807c7.047-4.548,14.3-8.925,22.117-12.027a57.566,57.566,0,0,1,23.377-4.388c.275.01.551.024.825.039l.243.015c.2.013.4.026.6.041l.257.021c.2.017.41.036.615.055l.21.021c.263.026.525.055.787.087l.027,0q.872.107,1.739.252l.061.01c.267.045.532.092.8.143l.075.014c.279.054.559.11.836.169h0c4.863.4,11.512-.126,12.921-6.094,1.279-5.42-1.161-8.61-3.413-10.327-.121-.081-.241-.161-.364-.239l-.026-.017c-.112-.071-.225-.143-.339-.211l-.052-.031c-.106-.063-.211-.126-.318-.187l-.071-.041c-.1-.057-.2-.113-.3-.168l-.089-.048-.286-.153-.1-.053-.279-.139-.11-.055-.285-.134-.1-.048c-.129-.059-.257-.116-.387-.172a24.81,24.81,0,0,0-8.466-1.837c-.99.014-2.309,0-4.025-.039h0c-1.1.034-2.2.1-3.288.175l-2.154.153c-15.256,2.048-32.14,12.805-32.14,12.805s17.2-13.515,23.572-16.207,1.274-9.488-2.548-8.851-3.61,3.186-15.078,5.309c-8.334,1.544-20.254,7.236-26.148,10.232a48.284,48.284,0,0,1,12.344-8.32c6.8-2.972,19.915-7.349,22.38-11.957,1.081-2.174-.078-3.913-2.631-5.244-4.885-2.548-14.228-9.768-14.228-9.768s7.433,9.556,2.973,15.077c0,0,1.185-6.371-7.158-14.017-7.418-6.8-20.354-11.073-30.344-6.773,0,0-.215.089-.63.278a101.615,101.615,0,0,0-16.63,10.181,125.59,125.59,0,0,1-15.592,9.733c-5.073,2.309-13.7,5.469-16.634,6.9a49.511,49.511,0,0,0-12.139,8.1c-.106.094-.213.186-.317.283a19.98,19.98,0,0,0-3.466,4.18,15.018,15.018,0,0,0-2.085,4.747l0,.018c-.071.266-.139.532-.2.8a24.418,24.418,0,0,0,.933,12.765,45.41,45.41,0,0,0,2.982,6.854c.039.075.079.147.12.221a11.493,11.493,0,0,0-1.5,2.175,17.678,17.678,0,0,0-1.859,5.48,20.669,20.669,0,0,0,.551,8.938c-.04.13-.076.26-.1.388a24.233,24.233,0,0,0-.523,5.62,15.6,15.6,0,0,0,3.841,10.482c2.524,2.719,6.084,4.207,8.537,6.995,2.5,2.841,3.68,6.592,6.285,9.377a14.331,14.331,0,0,0,11.335,4.4,8.74,8.74,0,0,0,3.964,1.384,15.316,15.316,0,0,0,5.361-.226c.367-.078.736-.153,1.1-.256a17.059,17.059,0,0,0,3.1-1.236c.023-.016.252-.175.667-.478A19.225,19.225,0,0,1,450,459.7Zm-7.39-64.685q-1.633.738-3.234,1.554-1.524.772-3.048,1.549l-.079.014c.954-.916,1.826-1.918,2.694-2.914a78.309,78.309,0,0,1,12.813-11.729,176.061,176.061,0,0,1,14.975-9.671,79.5,79.5,0,0,1,8.126-4.418,51.183,51.183,0,0,1,8.96-2.733q9-2.122,18.156-3.506c-.9.718-1.824,1.408-2.785,2.047a30.867,30.867,0,0,1-6.725,3.311c-2.407.867-4.834,1.647-7.181,2.67-2.4,1.046-4.722,2.262-7.054,3.451-4.8,2.443-9.6,4.871-14.348,7.412-4.642,2.486-9.08,5.284-13.556,8.05Q446.44,392.5,442.614,395.01Zm76.226-.886q5.936-3.395,12.035-6.492,3.048-1.546,6.134-3.018a58.473,58.473,0,0,1,6.1-2.649c4.319-1.485,8.935-1.439,13.448-1.218,3.555.174,7.709.749,10.125,3.565.045.053.089.107.132.161l.047.067c.121.167.236.339.344.515a8.161,8.161,0,0,1,.557,1.061s.1.263.112.306c.068.194.128.39.182.587.046.169.086.338.122.509.017.085.033.17.049.256.01.059.016.091.02.108a.218.218,0,0,0,0,.055,7.3,7.3,0,0,1,.028,1.1c0,.053-.025.283-.024.306a5.543,5.543,0,0,1-.121.568c-.042.159-.092.315-.147.469-.006.016-.031.075-.048.114-.026.056-.053.114-.083.168-.082.143-.163.284-.25.423a.868.868,0,0,1-.255.325,6.271,6.271,0,0,1-4.414,1.61c-2.121.1-4.26-.051-6.38-.094-9.155-.187-18.562.036-27.277,3.16a75.646,75.646,0,0,0-12.446,6.071c-4.021,2.341-7.979,4.786-11.916,7.263q-11.9,7.484-23.247,15.788c-7.534,5.524-14.768,11.453-22.4,16.845q-1.379.972-2.776,1.918c-.159.107-.349.252-.56.4.784-2.423,5.381-8.118,6.3-8.87,3.73-3.056,7.412-6.169,11.135-9.233,7.28-5.99,14.657-11.87,22.337-17.343Q506.893,400.953,518.84,394.124Zm-18.718-10.947a105.788,105.788,0,0,1,12.319-4.978c4.26-1.41,8.588-2.606,12.835-4.058,2.138-.731,4.255-1.524,6.328-2.423a29.456,29.456,0,0,1,2.864-1.253,1.974,1.974,0,0,1,1.207-.1c.171.061.494.287.5.494.01.3-1.357,1.09-1.662,1.315q-1.421,1.051-2.848,2.1c-1.834,1.339-3.682,2.659-5.562,3.933-3.911,2.654-7.992,5.035-12.033,7.484q-6.153,3.727-12.326,7.423t-12.358,7.367c-4.016,2.393-8.078,4.724-12.006,7.256a74.626,74.626,0,0,0-10.156,7.828c-2.923,2.693-5.667,5.573-8.436,8.421-2.791,2.872-5.622,5.714-8.619,8.371q-2.191,1.943-4.527,3.708c-.813.614-1.637,1.223-2.493,1.773a4.88,4.88,0,0,0-.445.263c-.033-.139-.076-.248-.087-.333a8.648,8.648,0,0,1,.2-2.465c.166-1.023.362-2.045.621-3.049a36.787,36.787,0,0,1,1.96-5.681,39.024,39.024,0,0,1,6.614-10.256,89.743,89.743,0,0,1,9.542-8.816,99.974,99.974,0,0,1,10.092-7.779,32.543,32.543,0,0,1,5.571-2.9C477.577,396.677,492.3,386.916,500.123,383.178Zm11.226-18.615c.255-.145.508-.292.762-.438a27.219,27.219,0,0,1-4.7,4.463c-.209.169-.421.336-.631.5-.171-.109-12.4,7.572-18.467,11.018-6.087,3.456-12.249,6.779-18.3,10.294a180.946,180.946,0,0,0-17.564,11.32,166.162,166.162,0,0,0-16.78,14.876c-2.487,2.441-7.65,10.271-7.843,10.4a1.507,1.507,0,0,1-.6.23,2.693,2.693,0,0,1-2.4-1.715c-.559-1.415-.008-3.179.557-4.532a37.044,37.044,0,0,1,2.233-4.33,50.534,50.534,0,0,1,5.592-7.805,47.354,47.354,0,0,1,7-6.564,84.407,84.407,0,0,1,9.525-5.986q10.4-5.869,20.808-11.726c3.375-1.9,6.727-3.852,10.144-5.677A105.66,105.66,0,0,1,491,374.269,170.235,170.235,0,0,0,511.349,364.563Zm-8.1-13.438c.37.743.238,1.1-.256,1.752a9.669,9.669,0,0,1-3.53,2.756c-3.179,1.557-6.823,1.661-10.29,1.7a47.243,47.243,0,0,0-11.651,1.174c-6.993,1.834-13.25,5.653-19.446,9.247-3.122,1.811-6.267,3.571-9.54,5.1a57.828,57.828,0,0,0-10.04,5.359c-2.772,2.033-5.3,4.612-8.5,5.978a5.506,5.506,0,0,1-3.824.374,1.985,1.985,0,0,1-.974-.711,2.53,2.53,0,0,1-.224-1.987c.688-2.986,3.335-5.415,5.757-7.091a73.5,73.5,0,0,1,9.07-4.924q5.646-2.829,11.321-5.6a68.508,68.508,0,0,0,10.31-5.84,85.645,85.645,0,0,0,7.647-6.635q.355-.331.714-.662c.82-.644,1.652-1.269,2.513-1.861a21.772,21.772,0,0,1,8.207-3.708,26.11,26.11,0,0,1,6.13-.308c1.987.083,3.981.2,5.961.4,3.41.347,7.011,1.216,9.445,3.8A7.162,7.162,0,0,1,503.247,351.124Z" transform="translate(-409.494 -333.17)"/>
        </g>
        <g id="Group_829" data-name="Group 829" transform="translate(53.707 143.718)">
          <g id="Group_828" data-name="Group 828">
            <path id="Path_601" data-name="Path 601" d="M536.789,466.064a1.465,1.465,0,0,0-.491-1.015h0a1.472,1.472,0,0,0-2.071.158c-6.448,7.487-11.006,3.885-16.057-.117-3.827-3.037-7.895-6.264-13.261-6.264a12.462,12.462,0,0,0-5.224,1.115,11.055,11.055,0,0,0-2.9,1.947,11.04,11.04,0,0,0-2.9-1.939,12.5,12.5,0,0,0-5.224-1.115c-5.392,0-10.175,3.262-14.584,6.265-1.456,1-2.878,1.963-4.226,2.737-3.844,2.2-7.288,2.862-10.325-2.354a1.464,1.464,0,0,0-2.745.5,22.365,22.365,0,0,0,.175,7.77,12.513,12.513,0,0,0,4.692,7.546,16.9,16.9,0,0,0,8.078,3.046,38.631,38.631,0,0,0,13.053-.832,34.834,34.834,0,0,0,9.151-3.27,18.954,18.954,0,0,0,4.858-3.694,18.972,18.972,0,0,0,4.842,3.661,34.839,34.839,0,0,0,9.151,3.27,38.633,38.633,0,0,0,13.053.832,16.906,16.906,0,0,0,8.078-3.045,12.482,12.482,0,0,0,4.693-7.547A22.3,22.3,0,0,0,536.789,466.064Z" transform="translate(-456.515 -458.826)"/>
          </g>
        </g>
      </g>
      <g id="Group_834" data-name="Group 834" transform="translate(0 0)">
        <g id="Group_831" data-name="Group 831">
          <path id="Path_602" data-name="Path 602" class="cls-3" d="M581.712,404.385a24.315,24.315,0,0,0,3.364-17.1,23.438,23.438,0,0,0-3.529-8.775,25.309,25.309,0,0,0-6.605-6.787,24.029,24.029,0,0,0-4.2-2.34,26.975,26.975,0,0,0-4.527-1.452c-3.072-.709-5.934-.908-8.324-1.646-.3-.089-.591-.182-.874-.286a6.924,6.924,0,0,1-.748-.312,6.415,6.415,0,0,1-1.287-.814,18.142,18.142,0,0,1-2.371-2.842,18,18,0,0,0-1.653-1.907,17.018,17.018,0,0,0-1.968-1.675,17.276,17.276,0,0,0-2.693-1.591,9.136,9.136,0,0,0-.464-1.847,8.91,8.91,0,0,0-2.2-3.361,16.7,16.7,0,0,0-5.787-3.269c-.889-.345-1.739-.661-2.536-.988q-.6-.245-1.154-.5l-1.186-.617c-1.581-.835-3.171-1.618-4.747-2.486-6.294-3.5-12.564-7.855-20-10.627a44.9,44.9,0,0,0-5.7-1.715l-2.786-.607c-.979-.2-1.968-.361-2.967-.484a32.486,32.486,0,0,0-17.912,2.615c-.463.209-.921.426-1.372.655s-.8.427-1.179.592c-.893.426-1.754.869-2.6,1.323a111.63,111.63,0,0,0-9.744,5.958c-1.564,1.053-3.115,2.172-4.617,3.261q-2.191,1.6-4.45,3.1c-3.01,2-6.108,3.883-9.265,5.608l-1.113.6-1.151.522-2.5,1.083-5.1,2.11-5.171,2.14c-.876.377-1.744.746-2.684,1.211q-1.3.648-2.567,1.356a50.105,50.105,0,0,0-9.558,6.774l-1.057.984q-.569.545-1.1,1.125a21.3,21.3,0,0,0-1.941,2.468,19.661,19.661,0,0,0-2.758,5.731,23.92,23.92,0,0,0-.853,6.126,27.607,27.607,0,0,0,.657,6.043,39.1,39.1,0,0,0,3.693,9.662,16.735,16.735,0,0,0-1.613,3.106,19.71,19.71,0,0,0-1.211,4.718,22.594,22.594,0,0,0,.694,8.992l-.077.41-.138.875q-.122.876-.183,1.753a26.446,26.446,0,0,0-.011,3.507,19.025,19.025,0,0,0,1.7,6.926,15.126,15.126,0,0,0,4.535,5.558c1.842,1.424,3.753,2.487,5.363,3.758a16.059,16.059,0,0,1,3.95,4.666,35.052,35.052,0,0,0,3.8,5.532,14.886,14.886,0,0,0,12.242,4.676,7.393,7.393,0,0,0,2.467.969,15.048,15.048,0,0,0,2.722.314,15.923,15.923,0,0,0,5.335-.808q-.633.154-1.275.256a15.318,15.318,0,0,1-5.361.226,8.755,8.755,0,0,1-3.964-1.384,14.331,14.331,0,0,1-11.335-4.4c-2.6-2.785-3.786-6.535-6.285-9.377-2.454-2.788-6.014-4.276-8.538-7A15.59,15.59,0,0,1,411.41,424.2a24.165,24.165,0,0,1,.523-5.62c.028-.129.063-.259.1-.388a20.669,20.669,0,0,1-.551-8.937,17.675,17.675,0,0,1,1.858-5.48,11.513,11.513,0,0,1,1.5-2.175c-.039-.074-.08-.146-.118-.221a45.405,45.405,0,0,1-2.981-6.854,24.419,24.419,0,0,1-.933-12.765c.059-.269.127-.536.2-.8l0-.018A15.018,15.018,0,0,1,413.1,376.2a19.96,19.96,0,0,1,3.467-4.18c.1-.1.211-.188.317-.283a49.519,49.519,0,0,1,12.139-8.1c2.935-1.43,11.56-4.589,16.634-6.9A125.6,125.6,0,0,0,461.25,347a101.6,101.6,0,0,1,16.63-10.181,30.219,30.219,0,0,1,10.668-3.421,33.8,33.8,0,0,1,12.091.838,39.323,39.323,0,0,1,4.332,1.1c8.011,2.507,14.922,7.4,22.214,11.4,1.825,1,3.673,1.963,5.57,2.822,1.74.787,3.554,1.364,5.317,2.092a8.541,8.541,0,0,1,4.622,3.632,5.946,5.946,0,0,1,.675,3.45,14.337,14.337,0,0,1,6.207,4.1c1.061,1.214,1.914,2.606,3.084,3.724a9.164,9.164,0,0,0,3.146,1.891,38.749,38.749,0,0,0,7.332,1.5,26.808,26.808,0,0,1,7.243,2.017,22.652,22.652,0,0,1,10.505,10.114,21.7,21.7,0,0,1,1.828,14.7,22.772,22.772,0,0,1-2.873,7.02c-.1.153-.193.3-.291.456.025.047.052.092.077.139a30.715,30.715,0,0,1,1.825,4.168,27.664,27.664,0,0,1,.982,15.672,10.845,10.845,0,0,1-4.339,6.519,7.276,7.276,0,0,1-2.113.97,1.659,1.659,0,0,1-.163.467c-1.825,3.515-4.7,6.849-8.631,7.924a8.968,8.968,0,0,1-.08,5.384,7.426,7.426,0,0,1-6.03,4.83c-.252.048-.5.091-.76.12a8.908,8.908,0,0,0,3.547-.824,7.391,7.391,0,0,0,2.855-2.36,8.018,8.018,0,0,0,1.392-3.5A9.744,9.744,0,0,0,568,440.5a12.813,12.813,0,0,0,5.189-3.1,18.513,18.513,0,0,0,2.153-2.469c.325-.439.628-.892.915-1.355.147-.229.284-.464.419-.7a2.284,2.284,0,0,0,.2-.392,10.362,10.362,0,0,0,5.9-5.31,16.033,16.033,0,0,0,1.352-3.948,25.705,25.705,0,0,0,.551-4.044,29.923,29.923,0,0,0-.66-8.094A32.12,32.12,0,0,0,581.712,404.385Z" transform="translate(-408.081 -330.078)"/>
          <path id="Path_603" data-name="Path 603" class="cls-4" d="M483.855,372c2.334-1.218,5.611-2.929,9.225-4.805A94.186,94.186,0,0,0,483.855,372Z" transform="translate(-396.763 -324.535)"/>
          <path id="Path_604" data-name="Path 604" class="cls-4" d="M530.47,402.413a65.183,65.183,0,0,0,6.911,1.654c2.153.346,4.339.506,6.463,1.017a17.745,17.745,0,0,1,6.02,2.835,20.094,20.094,0,0,0,5.547,3.219,4.569,4.569,0,0,0,4.746-.916,5.117,5.117,0,0,0,1.354-4.148,6.569,6.569,0,0,0-2.536-4.125c-1.626-1.287-3.7-1.563-5.505-2.5-.964-.5-1.828-1.184-2.814-1.645a11.757,11.757,0,0,0-3.016-.837,51.959,51.959,0,0,0-7.127-.63c-4.63-.139-9.274.06-13.9.218a90.587,90.587,0,0,0-12.835,1.187,46.811,46.811,0,0,0-10.652,3.223,116.408,116.408,0,0,1,13.2-.661A57.37,57.37,0,0,1,530.47,402.413Z" transform="translate(-393.884 -320.188)"/>
          <path id="Path_605" data-name="Path 605" class="cls-4" d="M551.241,421.588a3.975,3.975,0,0,0,.246-4.294,9.16,9.16,0,0,0-3.891-3.638c-1.772-1.044-3.606-2-5.428-2.948a62.077,62.077,0,0,0-11.588-4.893,71.131,71.131,0,0,0-13.173-2.015,52.263,52.263,0,0,0-11.3-.013,36.6,36.6,0,0,1,6.645,2.334c4.027,1.767,7.955,3.775,11.866,5.78q5.926,3.039,11.744,6.279c1.909,1.063,3.791,2.18,5.711,3.222a11.522,11.522,0,0,0,5.383,1.744A5.047,5.047,0,0,0,551.241,421.588Z" transform="translate(-393.439 -319.114)"/>
          <path id="Path_606" data-name="Path 606" class="cls-3" d="M465.934,391.8a99.9,99.9,0,0,0-10.091,7.779A89.707,89.707,0,0,0,446.3,408.4a39.016,39.016,0,0,0-6.614,10.256,36.8,36.8,0,0,0-1.96,5.681c-.259,1-.455,2.026-.621,3.049a8.648,8.648,0,0,0-.2,2.465c.011.085.054.194.087.333a4.9,4.9,0,0,1,.445-.263c.856-.551,1.68-1.16,2.493-1.773q2.336-1.766,4.527-3.708c3-2.657,5.828-5.5,8.619-8.371,2.769-2.848,5.514-5.73,8.436-8.421a74.64,74.64,0,0,1,10.156-7.828c3.928-2.532,7.99-4.863,12.006-7.256q6.181-3.681,12.358-7.367t12.326-7.423c4.041-2.448,8.121-4.83,12.033-7.484,1.879-1.275,3.727-2.594,5.562-3.933q1.428-1.041,2.848-2.1c.3-.225,1.672-1.013,1.662-1.315-.007-.207-.33-.433-.5-.494a1.973,1.973,0,0,0-1.207.1,29.375,29.375,0,0,0-2.864,1.253c-2.074.9-4.191,1.692-6.329,2.423-4.247,1.453-8.575,2.648-12.835,4.058a105.566,105.566,0,0,0-12.319,4.978c-7.826,3.738-22.546,13.5-22.9,13.641A32.553,32.553,0,0,0,465.934,391.8Z" transform="translate(-403.78 -325.252)"/>
          <path id="Path_607" data-name="Path 607" class="cls-3" d="M477.307,371.782c-3.417,1.825-6.77,3.774-10.144,5.677q-10.4,5.863-20.808,11.726a84.4,84.4,0,0,0-9.525,5.986,47.282,47.282,0,0,0-7,6.564,50.521,50.521,0,0,0-5.592,7.805,37.037,37.037,0,0,0-2.233,4.33c-.565,1.353-1.116,3.117-.557,4.532a2.693,2.693,0,0,0,2.4,1.715,1.508,1.508,0,0,0,.6-.23c.193-.131,5.356-7.961,7.843-10.4a166.126,166.126,0,0,1,16.78-14.876,180.942,180.942,0,0,1,17.563-11.32c6.054-3.515,12.215-6.838,18.3-10.295,6.065-3.445,18.3-11.126,18.467-11.017.21-.168.422-.334.631-.5a27.165,27.165,0,0,0,4.7-4.462c-.254.146-.507.293-.762.438a170.21,170.21,0,0,1-20.347,9.706A105.657,105.657,0,0,0,477.307,371.782Z" transform="translate(-406.119 -326.055)"/>
          <path id="Path_608" data-name="Path 608" class="cls-3" d="M483.226,340.577a26.126,26.126,0,0,0-6.131.308,21.778,21.778,0,0,0-8.205,3.708c-.861.592-1.693,1.217-2.512,1.86l-.714.663a85.635,85.635,0,0,1-7.647,6.635,68.407,68.407,0,0,1-10.31,5.839q-5.669,2.784-11.321,5.6a73.479,73.479,0,0,0-9.07,4.924c-2.422,1.676-5.069,4.1-5.757,7.09a2.53,2.53,0,0,0,.224,1.987,1.981,1.981,0,0,0,.974.711,5.506,5.506,0,0,0,3.824-.374c3.2-1.365,5.73-3.945,8.5-5.978a57.911,57.911,0,0,1,10.04-5.361c3.272-1.525,6.418-3.285,9.54-5.1,6.2-3.594,12.453-7.412,19.446-9.247a47.247,47.247,0,0,1,11.651-1.174c3.468-.036,7.111-.139,10.29-1.7a9.659,9.659,0,0,0,3.53-2.757c.494-.654.626-1.008.256-1.75a7.132,7.132,0,0,0-1.2-1.693c-2.434-2.583-6.035-3.452-9.445-3.8C487.207,340.778,485.213,340.66,483.226,340.577Z" transform="translate(-406.083 -328.517)"/>
          <path id="Path_609" data-name="Path 609" class="cls-3" d="M459,375.059c4.745-2.541,9.551-4.969,14.347-7.412,2.332-1.188,4.654-2.4,7.054-3.45,2.347-1.023,4.774-1.8,7.181-2.67a30.875,30.875,0,0,0,6.725-3.311c.961-.64,1.884-1.329,2.785-2.047q-9.146,1.379-18.156,3.506a51.192,51.192,0,0,0-8.96,2.733,79.288,79.288,0,0,0-8.126,4.418,176.057,176.057,0,0,0-14.975,9.671,78.3,78.3,0,0,0-12.813,11.729c-.868,1-1.74,2-2.694,2.914l.079-.015q1.523-.776,3.048-1.548c1.069-.541,2.146-1.062,3.234-1.554q3.817-2.519,7.716-4.912C449.915,380.343,454.353,377.545,459,375.059Z" transform="translate(-404.603 -326.181)"/>
          <path id="Path_610" data-name="Path 610" class="cls-3" d="M465.921,417.01c-3.723,3.064-7.405,6.177-11.135,9.233-.918.752-5.515,6.447-6.3,8.87.21-.151.4-.294.558-.4q1.4-.945,2.777-1.92c7.631-5.391,14.865-11.32,22.4-16.844q11.336-8.31,23.247-15.788c3.938-2.477,7.9-4.922,11.917-7.263a75.666,75.666,0,0,1,12.446-6.071c8.714-3.124,18.122-3.347,27.277-3.16,2.121.044,4.26.2,6.38.094a6.272,6.272,0,0,0,4.414-1.61.868.868,0,0,0,.255-.325c.086-.139.168-.281.248-.423.031-.054.057-.112.084-.168.017-.039.043-.1.048-.114.055-.154.1-.31.147-.469a5.637,5.637,0,0,0,.121-.568c0-.023.021-.253.024-.306a7.334,7.334,0,0,0-.028-1.1.213.213,0,0,1,0-.055c0-.017-.009-.049-.02-.109-.016-.085-.032-.17-.049-.255-.036-.171-.076-.34-.122-.509-.054-.2-.114-.393-.182-.587-.015-.042-.115-.307-.112-.306a8.157,8.157,0,0,0-.557-1.061q-.162-.264-.344-.516l-.047-.065c-.044-.054-.087-.108-.132-.161-2.416-2.816-6.57-3.392-10.125-3.565-4.512-.221-9.128-.267-13.448,1.218a58.457,58.457,0,0,0-6.1,2.649q-3.086,1.471-6.134,3.018-6.1,3.094-12.035,6.49-11.927,6.82-23.134,14.8C480.577,405.14,473.2,411.019,465.921,417.01Z" transform="translate(-402.046 -323.91)"/>
          <path id="Path_611" data-name="Path 611" class="cls-4" d="M503.59,408.355c4.522,2.28,9.105,4.471,13.523,6.95,2.106,1.182,8.828,5.573,15.162,9.947,6.3,4.353,12.224,8.689,13.367,8.742a7.274,7.274,0,0,0,2.726-.379,4.7,4.7,0,0,0,1.466-.855,27.41,27.41,0,0,0-3.962-4.28,52.588,52.588,0,0,0-5.421-4.184,159.5,159.5,0,0,0-23.077-12.689c-4.04-1.864-8.041-3.876-12.229-5.392a53.3,53.3,0,0,0-6.277-1.877c-1.368-.311-2.747-.54-4.131-.746l-.251.175c.369.184.733.368,1.091.548Z" transform="translate(-395.174 -319.098)"/>
          <path id="Path_612" data-name="Path 612" class="cls-5" d="M561.019,444.949a8.966,8.966,0,0,0,.081-5.383c3.933-1.075,6.805-4.409,8.631-7.924a1.666,1.666,0,0,0,.163-.467,7.284,7.284,0,0,0,2.113-.97,10.846,10.846,0,0,0,4.339-6.519,27.662,27.662,0,0,0-.982-15.672,30.72,30.72,0,0,0-1.825-4.167c-.025-.047-.052-.092-.077-.139.1-.152.2-.3.291-.456a22.778,22.778,0,0,0,2.873-7.02,21.7,21.7,0,0,0-1.828-14.7,22.653,22.653,0,0,0-10.505-10.115,26.8,26.8,0,0,0-7.243-2.017,38.759,38.759,0,0,1-7.332-1.5,9.168,9.168,0,0,1-3.146-1.891c-1.17-1.118-2.023-2.51-3.084-3.724a14.336,14.336,0,0,0-6.207-4.1,5.946,5.946,0,0,0-.675-3.451,8.541,8.541,0,0,0-4.622-3.632c-1.763-.728-3.577-1.3-5.317-2.092-1.9-.859-3.745-1.822-5.57-2.822-7.292-4-14.2-8.889-22.214-11.4a39.28,39.28,0,0,0-4.332-1.1,50.863,50.863,0,0,1,10.048,3.679,82.347,82.347,0,0,1,9.572,5.545c3.11,2.053,6.058,4.53,9.468,6.079.836.381,1.7.7,2.562,1.021h0c5.289,2.485,6.655,6.123,4.737,6.8s-4.737,3.672-4.737,3.672c4.754-2.44,11.18-.5,11.18-.5,5.933,2.938,5.526,8.642,3.066,8.489s-5.554,3.71-5.554,3.71c6.926-2.283,17.608-1.553,17.608-1.553a27.771,27.771,0,0,1,7.762,1.427,20.184,20.184,0,0,1,5.746,3.479,17.274,17.274,0,0,1,4.834,8.388,12.984,12.984,0,0,1-1.041,8.91,10.547,10.547,0,0,1-6.886,5.522,10.724,10.724,0,0,1-5.434-.407,36.478,36.478,0,0,0-5.246-1.318,42.751,42.751,0,0,0-10.522.069l-.789.083h0s-20.914-1.554-52.817,23.693c-1.348,1.067-2.482,1.954-3.682,2.9-2.078,1.646-4.359,3.483-8.3,6.772-1.869,1.559-4.111,3.444-6.884,5.789-3.755,3.178-7.158,7.543-10.063,10.16-4.839,4.363-8.288,6.985-9.671,7.995-.416.3-.644.462-.667.478l-.006,0a67.892,67.892,0,0,0,12.019-7.811c1.331-1.06,11.555-9.919,21.207-17.74,5.567-4.509,11.008-8.657,13.967-10.883a39.483,39.483,0,0,1,3.862,1.01,52.018,52.018,0,0,1,8.231,3.433c5.456,2.777,10.777,5.848,15.969,9.1q7.75,4.848,15.092,10.32c2.4,1.787,4.686,3.761,7.174,5.415a12.673,12.673,0,0,0,7.7,2.468,9.323,9.323,0,0,0,.938-.12A7.426,7.426,0,0,0,561.019,444.949Zm-7.661,2.753a9.659,9.659,0,0,1-1.677-.321c-3.592-1.028-6.464-3.631-9.225-6.018a76.915,76.915,0,0,0-9.5-6.941c-3.338-2.094-6.776-4.017-10.173-6.011-3.461-2.031-6.835-4.2-10.28-6.26a95.36,95.36,0,0,0-13.467-6.278c.509-.393,1.277-.969,2.274-1.665l.25-.175c5.278-3.65,16.444-10.286,29.407-11.562,21.8-2.144,30.725,2.063,35.276,5.237,3.919,2.733,6.452,6.941,6.773,10.206.01.5.006,1-.018,1.5-.111.778-.1.674,0,.056a15.841,15.841,0,0,1-1.078,5.156,3.9,3.9,0,0,1-2.385,2.455c-1.363.37-2.508-.377-3.487-1.241a37.457,37.457,0,0,0-6.231-4.551q-1.684-.964-3.445-1.77a26.2,26.2,0,0,1,6.741,5.842c1.124,1.416,2.2,3.1,1.893,4.994-.293,1.791-1.975,3.03-3.367,4.006a8.738,8.738,0,0,1-5.048,1.687,10.88,10.88,0,0,1-4.232-.978q2.229,2.046,4.276,4.28a6.634,6.634,0,0,1,2.01,3.609,3.853,3.853,0,0,1-1.367,3.292A6.761,6.761,0,0,1,553.359,447.7Z" transform="translate(-401.994 -329.538)"/>
          <path id="Path_613" data-name="Path 613" class="cls-6" d="M508.286,342.909c8.343,7.646,7.158,14.017,7.158,14.017,4.459-5.522-2.973-15.077-2.973-15.077s9.343,7.22,14.228,9.768c2.553,1.331,3.711,3.07,2.631,5.244-2.465,4.608-15.584,8.984-22.38,11.957a48.283,48.283,0,0,0-12.344,8.32,94.256,94.256,0,0,1,9.225-4.806c-3.614,1.877-6.891,3.587-9.225,4.806,5.894-3,17.814-8.688,26.148-10.232,11.467-2.123,11.255-4.671,15.078-5.309s8.919,6.158,2.548,8.851-23.572,16.207-23.572,16.207,16.884-10.757,32.14-12.805l2.154-.153c1.086-.077,2.185-.14,3.288-.175h0c1.716.041,3.036.053,4.025.039a24.812,24.812,0,0,1,8.466,1.837c.13.056.259.114.387.172l.1.048c.1.045.191.088.285.134l.11.055c.093.045.186.092.278.139l.1.053.286.153.089.048c.1.055.2.11.3.168l.071.041c.107.061.213.124.318.187l.052.031c.113.069.226.14.338.211l.028.017c.123.078.244.159.364.239,2.252,1.717,4.692,4.907,3.412,10.327-1.409,5.966-8.058,6.5-12.921,6.094h0c-.277-.059-.556-.115-.836-.169l-.075-.014c-.267-.051-.532-.1-.8-.143l-.06-.01q-.865-.145-1.739-.252l-.028,0c-.262-.032-.524-.061-.787-.087l-.21-.021c-.2-.02-.41-.038-.615-.055l-.257-.021c-.2-.015-.4-.029-.6-.041l-.243-.015c-.275-.015-.551-.029-.825-.039a57.569,57.569,0,0,0-23.377,4.388c-7.817,3.1-15.072,7.479-22.117,12.027q-11,7.1-21.59,14.807-10.724,7.786-21.043,16.11-2.528,2.04-5.03,4.109c-1.63,1.348-3.281,3.141-5.322,3.841a3.735,3.735,0,0,1-4.658-1.684c-.216-.44,1.338-4.686,2.331-6.255a82.849,82.849,0,0,1,9.844-12.426,146.113,146.113,0,0,1,24.4-20.4c5.011-3.4,15.324-11.265,14.662-10.889-4.76,2.693-9.569,5.308-14.212,8.2s-9.144,5.955-13.542,9.2A107.784,107.784,0,0,0,456,427.7c.1-.148.2-.3.3-.445-2.682,2.8-5.345,5.627-7.927,8.523-1.358,1.523-2.693,3.069-4.017,4.622-1.268,1.486-2.639,3.507-4.881,3.13-1.793-.3-3.142-2.044-3.838-3.618a11.1,11.1,0,0,1-.91-4.976,26.091,26.091,0,0,1,2.94-10.034c3.026-6.281,7.694-11.557,12.78-16.251,5.211-4.81,17.359-13.144,17.544-12.96q.636-.605,1.294-1.19a44.584,44.584,0,0,0-9.436,4.848q-4.539,2.788-8.854,5.922a130.484,130.484,0,0,0-14.441,12.179,53.6,53.6,0,0,0-6.3,6.954,27.2,27.2,0,0,0-3.193,5.9c-2.518-.462-11.153-2.742-9.511-12.106,1.918-10.936,23.564-24.244,23.564-24.244a65.392,65.392,0,0,0-24.209,16.492c.406-8.093,9.776-15.211,9.776-15.211h0l.142-.086.135-.082c.139-.084.278-.169.42-.256l.045-.028.468-.29.13-.082.364-.231.136-.086c.16-.1.322-.206.484-.311l.057-.036.439-.287.148-.1.387-.259.129-.085.506-.345.11-.076c.138-.1.276-.191.415-.289l.159-.111c.144-.1.287-.2.432-.306l.1-.072q.264-.19.531-.384l.143-.1.416-.307.162-.121c.173-.13.349-.261.525-.4l.03-.023q.277-.21.56-.43l.162-.126c.144-.111.287-.225.432-.34l.16-.125c.191-.153.383-.306.577-.463l.078-.063.511-.419.176-.146q.233-.193.468-.392l.14-.117c.2-.169.4-.34.6-.515l.133-.116q.243-.21.489-.425l.184-.162c.175-.154.349-.31.526-.469l.1-.092c.207-.186.416-.377.626-.57l.169-.155.49-.454.185-.175q.324-.3.649-.615c14.865-14.228,39.923-23.36,39.923-23.36-17.626,1.487-31.428,13.379-38.012,17.414s-22.3,18.05-25.476,8.494,5.838-19.5,7.056-20.159c-.724.372-1.436.769-2.129,1.2a20.067,20.067,0,0,0-6.985,7.044,23.384,23.384,0,0,0-2.842,9.965,32.578,32.578,0,0,0,1.683,12.073,41.088,41.088,0,0,0,1.571,4.1c-.443.653-.9,1.3-1.328,1.96a17.181,17.181,0,0,0-2.372,6.111,19.725,19.725,0,0,0-.051,6.815,17.429,17.429,0,0,0,.663,2.739,16.488,16.488,0,0,0-.355,5.408,19.754,19.754,0,0,0,4.064,10.268A20.005,20.005,0,0,0,420.695,438a35.694,35.694,0,0,1,4.484,3.446c1.473,1.47,2.112,3.356,3.087,5.148a12.068,12.068,0,0,0,4.2,4.4,14.416,14.416,0,0,0,6.753,2.093,12.038,12.038,0,0,0,1.411.01,4.461,4.461,0,0,0,.721.615,8.109,8.109,0,0,0,6.678,2.486,19.226,19.226,0,0,0,7-1.956c1.383-1.01,4.832-3.632,9.671-8,2.9-2.617,6.308-6.982,10.063-10.16,2.772-2.346,5.015-4.231,6.884-5.789,1.459-1.306,2.924-2.572,4.372-3.762,1.324-1.088,2.644-2.091,3.932-3.01,1.2-.949,2.333-1.837,3.682-2.9,31.9-25.247,52.817-23.693,52.817-23.693h0l.788-.083a42.757,42.757,0,0,1,10.522-.069A36.494,36.494,0,0,1,563,398.1a10.724,10.724,0,0,0,5.434.407,10.547,10.547,0,0,0,6.886-5.522,12.985,12.985,0,0,0,1.041-8.91,17.274,17.274,0,0,0-4.834-8.388,20.18,20.18,0,0,0-5.746-3.479,27.768,27.768,0,0,0-7.762-1.428s-10.682-.73-17.608,1.553c0,0,3.1-3.862,5.554-3.71s2.867-5.552-3.066-8.489c0,0-6.426-1.943-11.18.5,0,0,2.818-2.993,4.737-3.672s.553-4.317-4.737-6.8h0c-.862-.319-1.726-.64-2.562-1.021-3.409-1.549-6.357-4.026-9.467-6.079a82.348,82.348,0,0,0-9.572-5.544,50.858,50.858,0,0,0-10.048-3.679,33.8,33.8,0,0,0-12.091-.838,30.223,30.223,0,0,0-10.669,3.421c.415-.19.63-.278.63-.278C487.932,331.836,500.868,336.114,508.286,342.909Z" transform="translate(-407.513 -329.675)"/>
          <path id="Path_614" data-name="Path 614" class="cls-6" d="M552.115,434.1a6.635,6.635,0,0,0-2.01-3.609q-2.04-2.233-4.276-4.28a10.884,10.884,0,0,0,4.232.978,8.74,8.74,0,0,0,5.048-1.687c1.392-.976,3.073-2.215,3.367-4.006.308-1.892-.769-3.578-1.893-4.994a26.2,26.2,0,0,0-6.741-5.842q1.759.8,3.445,1.77a37.452,37.452,0,0,1,6.231,4.551c.979.864,2.124,1.611,3.487,1.241a3.9,3.9,0,0,0,2.385-2.455,15.844,15.844,0,0,0,1.078-5.156c-.091.617-.107.722,0-.056.024-.5.029-1,.018-1.5-.322-3.265-2.854-7.473-6.773-10.206-4.551-3.173-13.475-7.38-35.276-5.237-12.963,1.276-24.129,7.911-29.406,11.562,1.384.206,2.763.434,4.131.746a53.281,53.281,0,0,1,6.277,1.877c4.188,1.516,8.189,3.528,12.229,5.392a159.5,159.5,0,0,1,23.077,12.689,52.6,52.6,0,0,1,5.422,4.184,27.418,27.418,0,0,1,3.962,4.28,4.705,4.705,0,0,1-1.467.855,7.271,7.271,0,0,1-2.726.379c-1.144-.053-7.063-4.389-13.367-8.742-6.334-4.373-13.057-8.765-15.162-9.947-4.418-2.479-9-4.67-13.524-6.95l-8.011-4.04c-.358-.18-.722-.364-1.091-.548-1,.7-1.764,1.272-2.273,1.666a95.345,95.345,0,0,1,13.467,6.278c3.445,2.06,6.819,4.23,10.28,6.261,3.4,1.994,6.835,3.917,10.173,6.011a76.924,76.924,0,0,1,9.5,6.941c2.761,2.387,5.633,4.991,9.225,6.018a9.656,9.656,0,0,0,1.677.321,6.762,6.762,0,0,0,3.914-1.453A3.852,3.852,0,0,0,552.115,434.1Zm-47.4-32.643a46.8,46.8,0,0,1,10.652-3.223,90.575,90.575,0,0,1,12.835-1.187c4.626-.159,9.271-.358,13.9-.219a51.968,51.968,0,0,1,7.127.63,11.753,11.753,0,0,1,3.016.837c.986.461,1.849,1.144,2.814,1.645,1.8.939,3.879,1.215,5.505,2.5a6.569,6.569,0,0,1,2.535,4.125,5.118,5.118,0,0,1-1.354,4.148,4.569,4.569,0,0,1-4.746.916,20.1,20.1,0,0,1-5.547-3.219,17.745,17.745,0,0,0-6.02-2.836c-2.124-.511-4.31-.671-6.463-1.017a65.148,65.148,0,0,1-6.911-1.654,57.378,57.378,0,0,0-14.149-2.109A116.418,116.418,0,0,0,504.711,401.452Zm33.68,18.291q-5.818-3.24-11.744-6.279c-3.911-2.006-7.839-4.014-11.866-5.78a36.6,36.6,0,0,0-6.644-2.334,52.243,52.243,0,0,1,11.3.013,71.121,71.121,0,0,1,13.173,2.015A62.074,62.074,0,0,1,544.2,412.27c1.823.949,3.656,1.9,5.428,2.948a9.158,9.158,0,0,1,3.891,3.638,3.974,3.974,0,0,1-.246,4.294,5.048,5.048,0,0,1-3.787,1.559,11.521,11.521,0,0,1-5.383-1.744C542.181,421.924,540.3,420.807,538.391,419.743Z" transform="translate(-395.47 -320.676)"/>
          <path id="Path_615" data-name="Path 615" class="cls-4" d="M448.3,455.989a8.109,8.109,0,0,1-6.678-2.486,4.462,4.462,0,0,1-.721-.615,12.121,12.121,0,0,1-1.411-.01,14.42,14.42,0,0,1-6.753-2.093,12.072,12.072,0,0,1-4.2-4.4c-.975-1.792-1.614-3.678-3.087-5.148a35.687,35.687,0,0,0-4.484-3.446,20.013,20.013,0,0,1-4.165-3.822,19.756,19.756,0,0,1-4.064-10.268,16.493,16.493,0,0,1,.355-5.408,17.417,17.417,0,0,1-.663-2.739,19.724,19.724,0,0,1,.051-6.815,17.183,17.183,0,0,1,2.372-6.111c.429-.663.885-1.307,1.328-1.96a41.051,41.051,0,0,1-1.571-4.1,32.578,32.578,0,0,1-1.683-12.073,23.386,23.386,0,0,1,2.842-9.965,20.066,20.066,0,0,1,6.985-7.045c.693-.429,1.4-.825,2.129-1.2-1.218.661-10.234,10.6-7.056,20.159s18.892-4.46,25.476-8.494,20.386-15.927,38.012-17.414c0,0-25.058,9.132-39.923,23.36q-.326.312-.649.615l-.185.175-.49.454-.169.155c-.21.193-.42.384-.626.57l-.1.092c-.177.159-.352.315-.526.469l-.184.162q-.245.216-.489.425l-.133.116c-.2.175-.4.346-.6.515l-.14.117c-.156.132-.313.263-.468.392l-.176.146c-.171.141-.342.282-.511.42l-.078.063c-.194.157-.386.31-.577.463-.053.041-.106.084-.16.125-.145.115-.288.229-.432.34l-.162.126q-.283.219-.56.43l-.03.023c-.176.135-.352.266-.525.4l-.162.121-.416.307-.142.1-.531.384-.1.072q-.217.155-.432.306l-.159.112-.415.288-.11.076-.506.345-.129.085-.387.259-.148.1-.439.287-.056.036c-.162.106-.324.209-.484.312l-.136.086-.364.231-.13.082-.468.29-.045.027c-.141.087-.28.172-.419.256l-.135.082-.143.086h0s-9.37,7.118-9.775,15.211a65.392,65.392,0,0,1,24.209-16.492s-21.646,13.307-23.564,24.244c-1.642,9.364,6.993,11.644,9.511,12.106a27.208,27.208,0,0,1,3.193-5.9,53.639,53.639,0,0,1,6.3-6.954,130.5,130.5,0,0,1,14.441-12.179q4.312-3.129,8.854-5.922a44.592,44.592,0,0,1,9.436-4.848q-.657.584-1.294,1.189c-.185-.184-12.333,8.15-17.544,12.96-5.086,4.694-9.754,9.97-12.78,16.251a26.093,26.093,0,0,0-2.94,10.034,11.1,11.1,0,0,0,.91,4.976c.7,1.575,2.045,3.317,3.838,3.618,2.242.377,3.614-1.644,4.881-3.13,1.324-1.553,2.658-3.1,4.017-4.622,2.582-2.9,5.245-5.722,7.927-8.523-.1.148-.2.3-.3.445a107.778,107.778,0,0,1,15.759-14.023q6.6-4.865,13.542-9.2c4.643-2.892,9.452-5.507,14.212-8.2.662-.376-9.651,7.485-14.662,10.889a146.121,146.121,0,0,0-24.4,20.4,82.858,82.858,0,0,0-9.844,12.426c-.993,1.569-2.547,5.814-2.331,6.255a3.735,3.735,0,0,0,4.658,1.684c2.04-.7,3.692-2.493,5.322-3.841q2.5-2.069,5.03-4.109,10.313-8.322,21.043-16.109,10.6-7.691,21.59-14.807c7.046-4.548,14.3-8.925,22.117-12.027a57.568,57.568,0,0,1,23.377-4.388c.275.01.551.024.825.039l.242.015q.3.019.6.041l.258.021c.2.017.41.035.615.055l.21.021c.263.027.525.055.787.088l.028,0q.872.107,1.739.252l.06.01c.268.045.533.092.8.143l.075.014c.279.054.558.11.835.169h0c4.863.4,11.512-.128,12.921-6.094,1.279-5.421-1.161-8.61-3.412-10.327-.121-.08-.241-.161-.364-.239l-.028-.017c-.111-.071-.225-.143-.338-.211l-.052-.031c-.106-.063-.211-.126-.318-.187l-.071-.041c-.1-.057-.2-.113-.3-.168l-.089-.048-.286-.153-.1-.053c-.092-.047-.185-.094-.278-.139l-.11-.055c-.094-.046-.19-.09-.285-.135l-.1-.048q-.193-.088-.387-.173a24.813,24.813,0,0,0-8.466-1.837c-.99.014-2.309,0-4.025-.039h0c-1.1.035-2.2.1-3.288.175l-2.154.153c-15.255,2.048-32.14,12.805-32.14,12.805s17.2-13.515,23.572-16.207,1.273-9.488-2.548-8.851-3.61,3.186-15.077,5.309c-8.334,1.544-20.254,7.236-26.148,10.232a48.277,48.277,0,0,1,12.344-8.32c6.8-2.972,19.915-7.349,22.38-11.957,1.08-2.173-.078-3.912-2.631-5.243-4.885-2.548-14.228-9.768-14.228-9.768s7.433,9.556,2.973,15.077c0,0,1.185-6.371-7.158-14.017-7.418-6.8-20.354-11.073-30.344-6.773,0,0-.215.088-.63.278a101.592,101.592,0,0,0-16.63,10.181,125.568,125.568,0,0,1-15.592,9.733c-5.073,2.309-13.7,5.469-16.634,6.9a49.521,49.521,0,0,0-12.138,8.1c-.106.094-.213.186-.317.283a19.958,19.958,0,0,0-3.466,4.18,15.015,15.015,0,0,0-2.085,4.747l0,.018c-.071.266-.139.532-.2.8a24.419,24.419,0,0,0,.933,12.765,45.391,45.391,0,0,0,2.981,6.854c.038.075.079.147.118.221a11.506,11.506,0,0,0-1.5,2.175,17.677,17.677,0,0,0-1.859,5.48,20.668,20.668,0,0,0,.55,8.938c-.04.13-.076.26-.1.389a24.161,24.161,0,0,0-.523,5.62,15.589,15.589,0,0,0,3.841,10.482c2.524,2.72,6.084,4.207,8.538,7,2.5,2.841,3.68,6.592,6.285,9.376a14.331,14.331,0,0,0,11.335,4.4,8.755,8.755,0,0,0,3.964,1.384,15.315,15.315,0,0,0,5.361-.226c.367-.078.735-.153,1.1-.256a17.06,17.06,0,0,0,3.1-1.236c.023-.016.25-.175.667-.478A19.223,19.223,0,0,1,448.3,455.989ZM440.907,391.3c-1.088.492-2.165,1.013-3.234,1.554q-1.524.772-3.048,1.548l-.079.015c.954-.916,1.826-1.918,2.694-2.914a78.3,78.3,0,0,1,12.813-11.729,176.024,176.024,0,0,1,14.975-9.671,79.325,79.325,0,0,1,8.126-4.418,51.226,51.226,0,0,1,8.961-2.733q9-2.122,18.156-3.505c-.9.718-1.824,1.407-2.785,2.047a30.864,30.864,0,0,1-6.725,3.311c-2.407.867-4.834,1.647-7.181,2.67-2.4,1.046-4.722,2.262-7.054,3.45-4.8,2.444-9.6,4.871-14.348,7.412-4.642,2.486-9.08,5.284-13.556,8.05Q444.733,388.795,440.907,391.3Zm76.226-.887q5.936-3.393,12.035-6.49,3.048-1.548,6.134-3.018a58.445,58.445,0,0,1,6.1-2.649c4.319-1.485,8.935-1.439,13.448-1.218,3.555.174,7.709.749,10.125,3.565.045.053.089.107.132.161l.047.066q.181.252.344.516a8.149,8.149,0,0,1,.557,1.061s.1.263.112.306c.068.194.128.39.182.587.046.169.086.338.122.509.017.085.033.17.049.255.01.06.016.092.02.109a.234.234,0,0,0,0,.055,7.32,7.32,0,0,1,.028,1.1c0,.053-.025.283-.024.306a5.575,5.575,0,0,1-.121.568c-.042.159-.092.315-.147.469-.006.016-.031.075-.048.114-.026.056-.053.114-.084.168-.08.142-.162.284-.248.423a.866.866,0,0,1-.255.325,6.272,6.272,0,0,1-4.414,1.61c-2.12.1-4.259-.051-6.38-.094-9.155-.187-18.562.036-27.277,3.16a75.672,75.672,0,0,0-12.447,6.071c-4.02,2.341-7.979,4.786-11.917,7.263q-11.9,7.484-23.247,15.788c-7.533,5.524-14.767,11.454-22.4,16.844q-1.379.974-2.777,1.92c-.157.107-.348.251-.558.4.784-2.423,5.38-8.118,6.3-8.87,3.73-3.056,7.412-6.169,11.135-9.233,7.28-5.991,14.657-11.87,22.337-17.343Q505.186,397.246,517.133,390.416Zm-18.718-10.945a105.552,105.552,0,0,1,12.319-4.978c4.26-1.41,8.588-2.606,12.835-4.059,2.138-.731,4.255-1.525,6.328-2.423a29.333,29.333,0,0,1,2.864-1.253,1.971,1.971,0,0,1,1.207-.1c.171.061.494.287.5.494.01.3-1.358,1.09-1.662,1.315q-1.421,1.052-2.848,2.1c-1.834,1.339-3.683,2.659-5.562,3.933-3.911,2.654-7.992,5.035-12.033,7.484q-6.153,3.727-12.326,7.423t-12.358,7.368c-4.016,2.393-8.078,4.724-12.006,7.256a74.617,74.617,0,0,0-10.156,7.828c-2.923,2.692-5.668,5.573-8.436,8.421-2.791,2.872-5.622,5.714-8.619,8.371q-2.191,1.943-4.527,3.708c-.813.614-1.637,1.223-2.493,1.773a4.879,4.879,0,0,0-.445.263c-.033-.139-.076-.248-.087-.333a8.652,8.652,0,0,1,.2-2.465c.165-1.023.362-2.045.621-3.049a36.792,36.792,0,0,1,1.96-5.681,39.02,39.02,0,0,1,6.614-10.256,89.694,89.694,0,0,1,9.542-8.816,99.891,99.891,0,0,1,10.091-7.779,32.562,32.562,0,0,1,5.571-2.9C475.87,392.97,490.589,383.209,498.416,379.471Zm11.226-18.615c.255-.145.508-.292.762-.438a27.157,27.157,0,0,1-4.7,4.462c-.209.17-.421.337-.631.5-.171-.109-12.4,7.572-18.467,11.017-6.087,3.457-12.249,6.78-18.3,10.295a180.976,180.976,0,0,0-17.563,11.32,166.154,166.154,0,0,0-16.78,14.876c-2.487,2.441-7.65,10.271-7.843,10.4a1.506,1.506,0,0,1-.6.23,2.693,2.693,0,0,1-2.4-1.715c-.559-1.415-.008-3.179.557-4.532a37.037,37.037,0,0,1,2.233-4.33,50.534,50.534,0,0,1,5.592-7.805,47.286,47.286,0,0,1,7-6.564,84.421,84.421,0,0,1,9.525-5.986q10.4-5.869,20.808-11.726c3.375-1.9,6.727-3.851,10.144-5.677a105.628,105.628,0,0,1,10.319-4.627A170.209,170.209,0,0,0,509.641,360.856Zm-8.1-13.438c.37.743.238,1.1-.256,1.751a9.66,9.66,0,0,1-3.53,2.757c-3.179,1.558-6.823,1.661-10.29,1.7a47.241,47.241,0,0,0-11.651,1.174c-6.993,1.834-13.25,5.653-19.446,9.247-3.122,1.811-6.268,3.571-9.54,5.1a57.911,57.911,0,0,0-10.04,5.361c-2.772,2.033-5.3,4.612-8.5,5.978a5.507,5.507,0,0,1-3.824.373,1.981,1.981,0,0,1-.974-.711,2.53,2.53,0,0,1-.224-1.987c.688-2.986,3.336-5.415,5.757-7.091a73.479,73.479,0,0,1,9.07-4.924q5.646-2.829,11.321-5.6a68.408,68.408,0,0,0,10.31-5.839,85.617,85.617,0,0,0,7.647-6.635l.714-.663c.819-.643,1.652-1.268,2.513-1.86a21.775,21.775,0,0,1,8.205-3.708,26.131,26.131,0,0,1,6.131-.308c1.987.083,3.981.2,5.961.4,3.41.347,7.011,1.216,9.445,3.8A7.129,7.129,0,0,1,501.539,347.417Z" transform="translate(-407.787 -329.463)"/>
        </g>
        <g id="Group_833" data-name="Group 833" transform="translate(53.706 143.718)">
          <g id="Group_832" data-name="Group 832">
            <path id="Path_616" data-name="Path 616" class="cls-6" d="M535.082,462.357a1.466,1.466,0,0,0-.491-1.015h0a1.472,1.472,0,0,0-2.071.158c-6.448,7.487-11.007,3.885-16.057-.117-3.827-3.037-7.895-6.264-13.261-6.264a12.472,12.472,0,0,0-5.225,1.115,11.067,11.067,0,0,0-2.9,1.947,11.041,11.041,0,0,0-2.9-1.939,12.464,12.464,0,0,0-5.224-1.115c-5.391,0-10.175,3.262-14.584,6.265-1.456,1-2.878,1.963-4.226,2.737-3.844,2.2-7.288,2.862-10.325-2.354a1.464,1.464,0,0,0-2.745.5,22.341,22.341,0,0,0,.175,7.77,12.513,12.513,0,0,0,4.692,7.546,16.9,16.9,0,0,0,8.078,3.046,38.631,38.631,0,0,0,13.053-.832,34.838,34.838,0,0,0,9.151-3.27,18.952,18.952,0,0,0,4.858-3.694,18.97,18.97,0,0,0,4.842,3.661,34.832,34.832,0,0,0,9.151,3.27,38.634,38.634,0,0,0,13.053.832,16.9,16.9,0,0,0,8.078-3.046,12.481,12.481,0,0,0,4.693-7.546A22.3,22.3,0,0,0,535.082,462.357Z" transform="translate(-454.808 -455.119)"/>
          </g>
        </g>
      </g>
    </g>
  </g>
</svg>
