<?xml version="1.0" encoding="utf-8"?>
<!-- Generator: Adobe Illustrator 24.0.0, SVG Export Plug-In . SVG Version: 6.00 Build 0)  -->
<svg version="1.1" id="Layer_1" xmlns="http://www.w3.org/2000/svg" xmlns:xlink="http://www.w3.org/1999/xlink" x="0px" y="0px"
	 viewBox="0 0 1407.3 413" style="enable-background:new 0 0 1407.3 413;" xml:space="preserve">
<style type="text/css">
	.st0{fill:#42DABF;}
	.st1{fill:#E4E4E4;}
	.st2{fill:#35BAE9;}
	.st3{fill:#9B55E5;}
	.st4{fill:#FCC103;}
	.st5{fill:#FFFFFF;}
	.st6{font-family:'Helvetica-Bold';}
	.st7{font-size:30px;}
	.st8{font-family:'Helvetica';}
	.st9{font-size:15px;}
</style>
<g id="Group_1675" transform="translate(-3823.786 9246.437)">
	<g id="Group_1681" transform="translate(658.626)">
		<rect id="Rectangle_594" x="3936.8" y="-9060.4" class="st0" width="280" height="62.4"/>
		<g id="Group_1697" transform="translate(637.632 434.695) rotate(180)">
			<path id="Path_2690" class="st1" d="M-3427.2,9463.9c0-7.3-5.9-13.2-13.2-13.2s-13.2,5.9-13.2,13.2c0,7.3,5.9,13.2,13.2,13.2
				C-3433.1,9477.1-3427.2,9471.2-3427.2,9463.9C-3427.2,9463.9-3427.2,9463.9-3427.2,9463.9z"/>
			<path id="Path_2691" class="st0" d="M-3434.4,9463.9c0-3.3-2.7-6-6-6s-6,2.7-6,6c0,3.3,2.7,6,6,6S-3434.4,9467.2-3434.4,9463.9z"
				/>
			<rect id="Rectangle_592" x="-3443.8" y="9475.4" class="st1" width="7.1" height="95.9"/>
			<circle id="Ellipse_511" class="st0" cx="-3440.7" cy="9577.5" r="13.4"/>
		</g>
	</g>
	<g id="Group_1687" transform="translate(279.626)">
		<rect id="Rectangle_594-2" x="3963.8" y="-9060.4" class="st2" width="200" height="62.4"/>
		<g id="Group_1698" transform="translate(626.632 434.695) rotate(180)">
			<path id="Path_2690-2" class="st1" d="M-3427.2,9463.9c0-7.3-5.9-13.2-13.2-13.2s-13.2,5.9-13.2,13.2c0,7.3,5.9,13.2,13.2,13.2
				C-3433.1,9477.1-3427.2,9471.2-3427.2,9463.9C-3427.2,9463.9-3427.2,9463.9-3427.2,9463.9z"/>
			<path id="Path_2691-2" class="st2" d="M-3434.4,9463.9c0-3.3-2.7-6-6-6s-6,2.7-6,6c0,3.3,2.7,6,6,6S-3434.4,9467.2-3434.4,9463.9
				z"/>
			<rect id="Rectangle_592-2" x="-3443.8" y="9475.4" class="st1" width="7.1" height="95.9"/>
			<circle id="Ellipse_511-2" class="st2" cx="-3440.7" cy="9577.5" r="13.4"/>
		</g>
	</g>
	<g id="Group_1688" transform="translate(127.626)">
		<rect id="Rectangle_594-3" x="3923.8" y="-9060.4" class="st3" width="192" height="62.4"/>
		<g id="Group_1695" transform="translate(536.62 392.94)">
			<path id="Path_2690-3" class="st1" d="M3493.5-9420.1c0-7.3-5.9-13.2-13.2-13.2s-13.2,5.9-13.2,13.2c0,7.3,5.9,13.2,13.2,13.2
				C3487.6-9406.9,3493.5-9412.8,3493.5-9420.1C3493.5-9420.1,3493.5-9420.1,3493.5-9420.1z"/>
			<path id="Path_2691-3" class="st3" d="M3486.3-9420.1c0-3.3-2.7-6-6-6s-6,2.7-6,6c0,3.3,2.7,6,6,6S3486.3-9416.8,3486.3-9420.1z"
				/>
			<rect id="Rectangle_592-3" x="3476.8" y="-9408.6" class="st1" width="7.1" height="95.9"/>
			<circle id="Ellipse_511-3" class="st3" cx="3480" cy="-9306.5" r="13.4"/>
		</g>
	</g>
	<g id="Group_1689" transform="translate(-84.983)">
		<path id="Path_2692" class="st0" d="M3908.8-9060.4h227.6v62.4h-227.6V-9060.4z"/>
		<g id="Group_1699" transform="translate(584.241 434.695) rotate(180)">
			<path id="Path_2690-4" class="st1" d="M-3427.2,9463.9c0-7.3-5.9-13.2-13.2-13.2s-13.2,5.9-13.2,13.2c0,7.3,5.9,13.2,13.2,13.2
				C-3433.1,9477.1-3427.2,9471.2-3427.2,9463.9C-3427.2,9463.9-3427.2,9463.9-3427.2,9463.9z"/>
			<path id="Path_2691-4" class="st0" d="M-3434.4,9463.9c0-3.3-2.7-6-6-6s-6,2.7-6,6c0,3.3,2.7,6,6,6S-3434.4,9467.2-3434.4,9463.9
				z"/>
			<rect id="Rectangle_592-4" x="-3443.8" y="9475.4" class="st1" width="7.1" height="95.9"/>
			<circle id="Ellipse_511-4" class="st0" cx="-3440.7" cy="9577.5" r="13.4"/>
		</g>
	</g>
	<g id="Group_1680" transform="translate(776.965)">
		<rect id="Rectangle_595" x="4098.4" y="-9060.4" class="st3" width="140" height="62.4"/>
		<g id="Group_1691" transform="translate(688.281 392.94)">
			<path id="Path_2690-5" class="st1" d="M3493.5-9420.1c0-7.3-5.9-13.2-13.2-13.2s-13.2,5.9-13.2,13.2c0,7.3,5.9,13.2,13.2,13.2
				C3487.6-9406.9,3493.5-9412.8,3493.5-9420.1C3493.5-9420.1,3493.5-9420.1,3493.5-9420.1z"/>
			<path id="Path_2691-5" class="st3" d="M3486.3-9420.1c0-3.3-2.7-6-6-6s-6,2.7-6,6c0,3.3,2.7,6,6,6S3486.3-9416.8,3486.3-9420.1z"
				/>
			<rect id="Rectangle_592-5" x="3476.8" y="-9408.6" class="st1" width="7.1" height="95.9"/>
			<circle id="Ellipse_511-5" class="st3" cx="3480" cy="-9306.5" r="13.4"/>
		</g>
	</g>
	<g id="Group_1679" transform="translate(800.304)">
		<rect id="Rectangle_596" x="4215.1" y="-9060.4" class="st2" width="152.4" height="62.4"/>
		<g id="Group_1690" transform="translate(852.954 434.695) rotate(180)">
			<path id="Path_2690-6" class="st1" d="M-3427.2,9463.9c0-7.3-5.9-13.2-13.2-13.2s-13.2,5.9-13.2,13.2c0,7.3,5.9,13.2,13.2,13.2
				C-3433.1,9477.1-3427.2,9471.2-3427.2,9463.9C-3427.2,9463.9-3427.2,9463.9-3427.2,9463.9z"/>
			<path id="Path_2691-6" class="st2" d="M-3434.4,9463.9c0-3.3-2.7-6-6-6s-6,2.7-6,6c0,3.3,2.7,6,6,6S-3434.4,9467.2-3434.4,9463.9
				z"/>
			<rect id="Rectangle_592-6" x="-3443.8" y="9475.4" class="st1" width="7.1" height="95.9"/>
			<circle id="Ellipse_511-6" class="st2" cx="-3440.7" cy="9577.5" r="13.4"/>
		</g>
	</g>
	<g id="Group_1686" transform="translate(198.304)">
		<rect id="Rectangle_596-2" x="4245.1" y="-9060.4" class="st4" width="152" height="62.4"/>
		<g id="Group_1693" transform="translate(838.942 392.94)">
			<path id="Path_2690-7" class="st1" d="M3493.5-9420.1c0-7.3-5.9-13.2-13.2-13.2s-13.2,5.9-13.2,13.2c0,7.3,5.9,13.2,13.2,13.2
				C3487.6-9406.9,3493.5-9412.8,3493.5-9420.1C3493.5-9420.1,3493.5-9420.1,3493.5-9420.1z"/>
			<path id="Path_2691-7" class="st4" d="M3486.3-9420.1c0-3.3-2.7-6-6-6s-6,2.7-6,6c0,3.3,2.7,6,6,6S3486.3-9416.8,3486.3-9420.1z"
				/>
			<rect id="Rectangle_592-7" x="3476.8" y="-9408.6" class="st1" width="7.1" height="95.9"/>
			<circle id="Ellipse_511-7" class="st4" cx="3480" cy="-9306.5" r="13.4"/>
		</g>
	</g>
</g>
<text transform="matrix(1 0 0 1 87.3391 29)" class="st5 st6 st7">22</text>
<text transform="matrix(1 0 0 1 120.7083 29)" class="st5 st8 st7">%</text>
<text transform="matrix(1 0 0 1 87.3391 49)" class="st5 st8 st9">Low quality and high </text>
<text transform="matrix(1 0 0 1 87.3391 65)" class="st5 st8 st9">price of input</text>
<text transform="matrix(1 0 0 1 498.3391 29)" class="st5 st6 st7">15</text>
<text transform="matrix(1 0 0 1 531.7083 29)" class="st5 st8 st7">%</text>
<text transform="matrix(1 0 0 1 498.3391 49)" class="st5 st8 st9">Access to Irrigation Water</text>
<text transform="matrix(1 0 0 1 884.3391 29)" class="st5 st6 st7">16</text>
<text transform="matrix(1 0 0 1 917.7083 29)" class="st5 st8 st7">%</text>
<text transform="matrix(1 0 0 1 884.3391 49)" class="st5 st8 st9">Mandi Reach</text>
<text transform="matrix(1 0 0 1 1241.3391 29)" class="st5 st6 st7">10</text>
<text transform="matrix(1 0 0 1 1274.7083 29)" class="st5 st8 st7">%</text>
<text transform="matrix(1 0 0 1 1241.3391 49)" class="st5 st8 st9">Loans &amp; Crop Insurance</text>
<text transform="matrix(1 0 0 1 295.3391 390)" class="st5 st6 st7">18</text>
<text transform="matrix(1 0 0 1 328.7083 390)" class="st5 st8 st7">%</text>
<text transform="matrix(1 0 0 1 295.3391 410)" class="st5 st8 st9">Crop wastage</text>
<text transform="matrix(1 0 0 1 672.3391 390)" class="st5 st6 st7">10</text>
<text transform="matrix(1 0 0 1 705.7083 390)" class="st5 st8 st7">%</text>
<text transform="matrix(1 0 0 1 672.3391 410)" class="st5 st8 st9">Electricity outage &amp; cost</text>
<text transform="matrix(1 0 0 1 1094.3391 390)" class="st5 st6 st7">8</text>
<text transform="matrix(1 0 0 1 1111.0237 390)" class="st5 st8 st7">%</text>
<text transform="matrix(1 0 0 1 1094.3391 410)" class="st5 st8 st9">Machinery Rental</text>
</svg>
