<svg height="512" viewBox="0 0 58 58" width="512" xmlns="http://www.w3.org/2000/svg"><g id="Page-1" fill="none" fill-rule="evenodd"><g id="012---GDP"><path id="Path" d="m58 29c.0076714 10.8636636-6.0659058 20.8176891-15.73 25.78l-3.5-4.51c-1.1178144-1.432262-2.8331667-2.269649-4.65-2.27-1.3579174.0002346-2.660221-.5393939-3.62-1.5s-2.2620826-1.5002346-3.62-1.5h-1.91c-1.8365878-.0021907-3.5325102.9832778-4.44 2.58l-4.27 7.47c-3.54535-1.7258533-6.69744082-4.1631072-9.26-7.16v-7.18c-.00024305-1.1615382.25584622-2.3088182.75-3.36.48616726-1.053282 1.2040419-1.9831006 2.1-2.72.4226503-.3493039.8080346-.7413904 1.15-1.17v1.54c0 2.209139 1.790861 4 4 4h20v.96c-.0010239 1.4328798.9989698 2.6718057 2.399796 2.9731883s2.8218563-.416669 3.410204-1.7231883l1-2.21h1.19c2.209139 0 4-1.790861 4-4v-7.41l6.45-14.19c2.9795945 4.6568377 4.5588781 10.0715245 4.55 15.6z" fill="#2980ba"/><g fill="#24ae5f"><path id="Path" d="m42.27 54.78c-8.1399477 4.1961659-17.7846981 4.2962844-26.01.27l4.27-7.47c.9074898-1.5967222 2.6034122-2.5821907 4.44-2.58h1.91c1.3579174-.0002346 2.660221.5393939 3.62 1.5s2.2620826 1.5002346 3.62 1.5c1.8168333.000351 3.5321856.837738 4.65 2.27z"/><path id="Path" d="m41.81 39-1 2.21c-.5883477 1.3065193-2.0093778 2.0245709-3.410204 1.7231883s-2.4008199-1.5403085-2.399796-2.9731883l-.0000008-.96z"/><path id="Path" d="m11.51 21.04c-.3330023.5996968-.5084723 1.2740522-.51 1.96v10.46c-.3419654.4286096-.7273497.8206961-1.15 1.17-.8959581.7368994-1.61383274 1.666718-2.1 2.72-.49415378 1.0511818-.75024305 2.1984618-.75 3.36v7.18c-9.07083631-10.5589296-9.35629693-26.0745539-.68-36.96l1.44 1.2c1.42073528 1.184957 2.2414513 2.9399703 2.24 4.79.000793 1.3491154.4394345 2.6615305 1.25 3.74.09.12.18.25.26.38z"/></g><path id="Path" d="m36 11c-.0032948 1.1032019-.8967981 1.9967052-2 2h-3.5c-3.5617564.0070023-6.630076 2.511753-7.35 6h-8.15c-1.446635-.0011246-2.7811491.7789352-3.49 2.04-.08-.13-.17-.26-.26-.38-.8105655-1.0784695-1.249207-2.3908846-1.25-3.74.0014513-1.8500297-.81926472-3.605043-2.24-4.79l-1.44-1.2c4.8420897-6.09520636 11.936646-9.98135051 19.68-10.78v4.85c0 2.209139 1.790861 4 4 4h4c1.1011688.00816722 1.9918328.89883122 2 2z" fill="#2980ba"/><path id="Path" d="m47 27.59v-4.59c0-2.209139-1.790861-4-4-4h-19.85c.719924-3.488247 3.7882436-5.9929977 7.35-6h3.5c1.1032019-.0032948 1.9967052-.8967981 2-2-.0081672-1.10116878-.8988312-1.99183278-2-2h-4c-2.209139 0-4-1.790861-4-4v-4.85c.9968469-.10034292 1.9981157-.15040636 3-.15 9.9052682-.00844899 19.1278139 5.04603416 24.45 13.4z" fill="#24ae5f"/><path id="Path" d="m47 23v12c0 2.209139-1.790861 4-4 4h-28c-2.209139 0-4-1.790861-4-4v-12c.0015277-.6859478.1769977-1.3603032.51-1.96.7088509-1.2610648 2.043365-2.0411246 3.49-2.04h28c2.209139 0 4 1.790861 4 4z" fill="#ff5364"/><path id="Shape" d="m38 22h-2c-.5522847 0-1 .4477153-1 1v12c0 .5522847.4477153 1 1 1s1-.4477153 1-1v-5h1c2.209139 0 4-1.790861 4-4s-1.790861-4-4-4zm0 6h-1v-4h1c1.1045695 0 2 .8954305 2 2s-.8954305 2-2 2z" fill="#fff" fill-rule="nonzero"/><path id="Shape" d="m29 22h-2c-.5522847 0-1 .4477153-1 1v12c0 .5522847.4477153 1 1 1h2c2.209139 0 4-1.790861 4-4v-6c0-2.209139-1.790861-4-4-4zm2 10c0 1.1045695-.8954305 2-2 2h-1v-10h1c1.1045695 0 2 .8954305 2 2z" fill="#fff" fill-rule="nonzero"/><path id="Path" d="m20 24c1.1045695 0 2 .8954305 2 2 0 .5522847.4477153 1 1 1s1-.4477153 1-1c0-2.209139-1.790861-4-4-4s-4 1.790861-4 4v6c0 2.209139 1.790861 4 4 4s4-1.790861 4-4v-2c0-.5522847-.4477153-1-1-1h-2c-.5522847 0-1 .4477153-1 1s.4477153 1 1 1h1v1c0 1.1045695-.8954305 2-2 2s-2-.8954305-2-2v-6c0-1.1045695.8954305-2 2-2z" fill="#fff"/><path id="Path" d="m12.3 52.71c-1.9598601-1.3804791-3.74021998-2.9995989-5.3-4.82v-7.18c.0016002-.5410605.05856356-1.0805371.17-1.61.51498895 4.9014279 2.28153957 9.5881246 5.13 13.61z" fill="#3b97d3"/><path id="Path" d="m7 36c.00096935 1.035636.05771822 2.0704682.17 3.1-.11143644.5294629-.1683998 1.0689395-.17 1.61v7.18c-9.07083631-10.5589296-9.35629693-26.0745539-.68-36.96l1.44 1.2c1.42073528 1.184957 2.2414513 2.9399703 2.24 4.79.000793 1.3491154.4394345 2.6615305 1.25 3.74.0256591.0316433.0490507.0650598.07.1-2.83254965 4.577949-4.32886332 9.8566111-4.32 15.24z" fill="#4fba6f"/><path id="Path" d="m27.64 8.22c-6.7868111 2.0507074-12.5906161 6.5102487-16.32 12.54-.0209493-.0349402-.0443409-.0683567-.07-.1-.8105655-1.0784695-1.249207-2.3908846-1.25-3.74.0014513-1.8500297-.81926472-3.605043-2.24-4.79l-1.44-1.2c4.8420897-6.09520636 11.936646-9.98135051 19.68-10.78v4.85c.0000482.97734883.3595313 1.92054728 1.01 2.65.0882402.104741.185259.20175975.29.29.1062493.10161725.2198949.1952077.34.28z" fill="#3b97d3"/><path id="Path" d="m52.71 12.3c-4.8850368-3.45791927-10.7249615-5.31019941-16.71-5.3-2.8310844-.00089565-5.6472411.41007458-8.36 1.22-.1201051-.0847923-.2337507-.17838275-.34-.28-.825381-.75509994-1.2968438-1.82133127-1.3-2.94v-4.85c.9968469-.10034292 1.9981157-.15040636 3-.15 9.4350726-.0069643 18.2820896 4.58258903 23.71 12.3z" fill="#4fba6f"/></g></g></svg>